<?xml version="1.0" encoding="UTF-8" standalone="no"?>
<svg
   width="60.00013"
   height="48.000317"
   viewBox="0 0 60.00013 48.000317"
   version="1.1"
   id="svg32"
   xmlns="http://www.w3.org/2000/svg"
   xmlns:svg="http://www.w3.org/2000/svg">
  <defs
     id="defs36" />
  <path
     fill="#947151"
     d="m 18.31654,42.855 c -3.047,0.506 -6.607,-0.541 -10.4399999,-3.858 -5.186,-4.486 -8.34400003,-9.959 -7.82000003,-17.384 0.201,-2.854 1.28500003,-4.793 2.60800003,-6.039 0.963,-0.907 7.0609995,1.204 7.0609995,7.828 0,12.631 8.5910004,19.453 8.5910004,19.453 z"
     id="path2" />
  <path
     fill="#231f20"
     d="m 9.1895396,24.595 c 0,-5.977 -3.0109995,-8.531 -6.5249995,-9.021 3.313,-3.442 9.2049999,2.266 9.2049999,7.537 0,12.631 5.212,13.729 8.063,19.41 0,0 -0.508,0.306 -1.615,0.334 -3.64,-3.019 -9.1280004,-8.631 -9.1280004,-18.26 z"
     id="path4" />
  <path
     fill="#ffe8bb"
     d="m 10.78054,23.514 c 0,-5.986 -3.4629999,-8.604 -7.0989999,-8.686 3.848,-2.338 9.3629999,0.953 9.3629999,7.335 0,10.271 6.887,14.942 6.887,14.942 v 5.416 c -1.57,-1.259 -9.151,-7.744 -9.151,-19.007 z"
     id="path6" />
  <path
     fill="#5e4433"
     d="m 51.37354,24.122 c 0,0 7.415,0.54 8.442,-1.626 1.432,-3.022 -5.857,-4.593 -8.442,-3.404 z m -19.085,20.363 c 0,0 10.836,0.518 10.836,-0.998 0,-1.513 -4.852,-4.489 -10.836,-4.489 z"
     id="path8" />
  <path
     fill="#947151"
     d="m 20.33154,42.827 c -2.925,-4.323 -3.528,-12.874 -1.399,-18.115 1.702,-4.191 6.223,-9.286 12.753,-12.117 16.525,-7.161 22.514,3.682 14.978,9.224 -8.836,6.499 -7.975,16.871 -11.352,21.224 3.639,0.947 6.158,2.785 6.158,3.874 0,1.518 -10.835,0.997 -10.835,0.997 -5.987,0 -10.839,-1.226 -10.839,-2.743 0,-1.063 0.191,-1.808 0.536,-2.329 z"
     id="path10" />
  <path
     fill="#ffe8bb"
     d="m 30.51854,31.855 c 0,-3.674 -1.621,-6.921 -4.109,-8.942 5.225,0.391 9.927,5.222 9.865,11.095 -0.056,5.347 -3.439,8.029 -2.342,8.42 8.784,3.138 -1.208,0.757 -8.207,2.645 -2.156,0.581 4.793,-7.091 4.793,-13.218 z"
     id="path12" />
  <path
     fill="#231f20"
     d="m 15.88954,27.166 c 0,-6.887 9.621,-14.972 15.655,-16.93 2.225,-0.722 4.207,-1.193 5.99,-1.458 -0.239,0.833 -0.348,1.679 -0.384,2.539 -12.237,3.078 -24.149,15.536 -16.818,31.51 -3.527,-5.008 -4.443,-9.2 -4.443,-15.661 z"
     id="path14" />
  <path
     fill="#ffe8bb"
     d="m 30.55954,8.896 c 2.679,-0.729 5.147,-1.009 7.353,-1.004 -0.435,0.625 -0.632,1.417 -0.694,2.181 -10.53,2.89 -20.494,9.635 -20.494,21.502 0,2.744 1.563,8.74 3.607,11.251 -3.862,-2.771 -6.107,-9.438 -6.107,-15.66 0,-9.929 7.52,-15.871 16.335,-18.27 z"
     id="path16" />
  <path
     fill="#5e4433"
     d="m 42.08954,5.672 5.623,0.569 c 0.261,-3.104 -2.335,-5.904 -2.335,-5.904 0,0 -3.025,2.231 -3.288,5.335 z"
     id="path18" />
  <path
     fill="#947151"
     d="m 39.56754,6.184 c -0.302,-3.07 2.205,-6.184 2.205,-6.184 0,0 3.17,2.233 3.59,5.265 5.377,0.155 11.387,7.453 10.873,13.286 -0.145,1.628 -4.392,4.551 -9.811,4.551 -5.419,0 -9.811,-4.801 -9.811,-10.724 10e-4,-3.399 1.045,-5.239 2.954,-6.194 z"
     id="path20" />
  <path
     fill="#f4a19a"
     d="m 40.54454,7.279 c 0.484,4.278 1.412,4.053 2.565,3.897 1.155,-0.156 2.103,-0.185 1.616,-4.464 -0.26,-2.308 -2.563,-3.895 -2.563,-3.895 0,0 -1.88,2.155 -1.618,4.462 z"
     id="path22" />
  <path
     fill="#ffe8bb"
     d="m 46.00654,13.386 c 0,0 1.488,1.903 3.324,1.903 1.835,0 2.6,-1.903 2.6,-1.903 0,0 -0.765,-3.484 -2.6,-3.484 -1.836,-10e-4 -3.324,3.484 -3.324,3.484 z"
     id="path24" />
  <path
     fill="#231f20"
     d="m 47.36554,13.243 c 0,0 0.911,1.165 2.038,1.165 1.125,0 1.594,-1.165 1.594,-1.165 0,0 -0.469,-2.137 -1.594,-2.137 -1.127,0 -2.038,2.137 -2.038,2.137 z"
     id="path26" />
  <path
     fill="#ffe8bb"
     d="m 36.27054,13.459 c 1.825,0.624 4.525,-0.457 4.525,-0.457 2.396,-2.993 3.69,0.997 3.69,0.997 l -1.066,0.409 1.965,0.881 -0.528,0.497 h 0.958 l -0.607,0.542 0.444,0.346 c 0.654,-0.366 1.385,-0.593 2.17,-0.593 2.644,0 4.788,2.343 4.788,5.234 0,2.891 -2.144,5.235 -4.788,5.235 -2.645,0 -4.789,-2.345 -4.789,-5.235 0,-0.089 0.02,-0.173 0.024,-0.261 l -1.771,0.459 0.422,-1.463 h -2.135 l 0.946,-0.813 -2.97,-2.286 h 1.84 l -2.775,-1.662 h 2.087 c -1.142,-0.005 -4.254,-2.453 -2.43,-1.83 z"
     id="path28" />
  <path
     fill="#947151"
     d="m 36.27554,28.446 c -0.064,2.299 5.4,9.021 13.272,-1.329 0,0 7.415,0.54 8.441,-1.626 1.432,-3.022 -7.073,-4.775 -9.278,-3.404 -5.223,3.248 -12.168,-2.992 -12.435,6.359 z"
     id="path30" />
</svg>
