<svg width="60" height="48" xmlns="http://www.w3.org/2000/svg"><path fill="#947151" d="M18.317 42.855c-3.047.506-6.607-.541-10.44-3.858C2.69 34.511-.467 29.038.057 21.613c.2-2.854 1.285-4.793 2.608-6.039.963-.907 7.06 1.204 7.06 7.828 0 12.631 8.592 19.453 8.592 19.453z"/><path fill="#231f20" d="M9.19 24.595c0-5.977-3.011-8.531-6.525-9.021 3.313-3.442 9.205 2.266 9.205 7.537 0 12.631 5.212 13.729 8.063 19.41 0 0-.508.306-1.615.334-3.64-3.019-9.128-8.631-9.128-18.26z"/><path fill="#ffe8bb" d="M10.78 23.514c0-5.986-3.462-8.604-7.098-8.686 3.848-2.338 9.363.953 9.363 7.335 0 10.271 6.887 14.942 6.887 14.942v5.416c-1.57-1.259-9.151-7.744-9.151-19.007z"/><path fill="#5e4433" d="M51.374 24.122s7.415.54 8.442-1.626c1.432-3.022-5.857-4.593-8.442-3.404zM32.289 44.485s10.836.518 10.836-.998c0-1.513-4.852-4.489-10.836-4.489z"/><path fill="#947151" d="M20.332 42.827c-2.925-4.323-3.528-12.874-1.4-18.115 1.703-4.191 6.224-9.286 12.754-12.117C48.21 5.434 54.2 16.277 46.664 21.819c-8.836 6.499-7.975 16.871-11.352 21.224 3.639.947 6.158 2.785 6.158 3.874 0 1.518-10.835.997-10.835.997-5.987 0-10.84-1.226-10.84-2.743 0-1.063.192-1.808.537-2.329z"/><path fill="#ffe8bb" d="M30.519 31.855c0-3.674-1.621-6.921-4.11-8.942 5.226.391 9.928 5.222 9.866 11.095-.056 5.347-3.44 8.029-2.342 8.42 8.784 3.138-1.208.757-8.207 2.645-2.156.581 4.793-7.091 4.793-13.218z"/><path fill="#231f20" d="M15.89 27.166c0-6.887 9.62-14.972 15.655-16.93 2.225-.722 4.207-1.193 5.99-1.458-.24.833-.348 1.679-.384 2.539C24.914 14.395 13 26.853 20.333 42.827c-3.527-5.008-4.443-9.2-4.443-15.661z"/><path fill="#ffe8bb" d="M30.56 8.896c2.679-.729 5.147-1.009 7.353-1.004-.435.625-.632 1.417-.694 2.181-10.53 2.89-20.494 9.635-20.494 21.502 0 2.744 1.563 8.74 3.607 11.251-3.862-2.771-6.107-9.438-6.107-15.66 0-9.929 7.52-15.871 16.335-18.27z"/><path fill="#5e4433" d="M42.09 5.672l5.623.569c.26-3.104-2.335-5.904-2.335-5.904s-3.025 2.231-3.288 5.335z"/><path fill="#947151" d="M39.568 6.184C39.266 3.114 41.773 0 41.773 0s3.17 2.233 3.59 5.265c5.377.155 11.387 7.453 10.873 13.286-.145 1.628-4.392 4.551-9.811 4.551-5.42 0-9.811-4.801-9.811-10.724 0-3.399 1.045-5.239 2.954-6.194z"/><path fill="#f4a19a" d="M40.545 7.279c.484 4.278 1.412 4.053 2.565 3.897 1.155-.156 2.103-.185 1.616-4.464-.26-2.308-2.563-3.895-2.563-3.895s-1.88 2.155-1.618 4.462z"/><path fill="#ffe8bb" d="M46.007 13.386s1.488 1.903 3.324 1.903c1.835 0 2.6-1.903 2.6-1.903s-.765-3.484-2.6-3.484c-1.836-.001-3.324 3.484-3.324 3.484z"/><path fill="#231f20" d="M47.366 13.243s.91 1.165 2.038 1.165c1.125 0 1.594-1.165 1.594-1.165s-.47-2.137-1.594-2.137c-1.127 0-2.038 2.137-2.038 2.137z"/><path fill="#ffe8bb" d="M36.27 13.459c1.826.624 4.526-.457 4.526-.457 2.396-2.993 3.69.997 3.69.997l-1.066.409 1.965.881-.528.497h.958l-.607.542.444.346c.654-.366 1.385-.593 2.17-.593 2.644 0 4.788 2.343 4.788 5.234s-2.144 5.235-4.788 5.235c-2.645 0-4.79-2.345-4.79-5.235 0-.089.02-.173.025-.261l-1.771.459.422-1.463h-2.135l.946-.813-2.97-2.286h1.84l-2.775-1.662H38.7c-1.142-.005-4.254-2.453-2.43-1.83z"/><path fill="#947151" d="M36.276 28.446c-.064 2.299 5.4 9.021 13.272-1.329 0 0 7.415.54 8.44-1.626 1.433-3.022-7.072-4.775-9.277-3.404-5.223 3.248-12.168-2.992-12.435 6.359z"/></svg>