<svg width="60.001" height="55.999" xmlns="http://www.w3.org/2000/svg"><path fill="#7d593e" d="M3.124 41.479H43.59c0-7.36-5.679-18.712-5.679-18.712.118-.5-.476-1.22-1.105-1.18l-12.73-5.916c-.267-.374-1.265-.295-1.453 0l-12.71 5.917c-.57.022-1.164.74-1.106 1.179 0 0-5.682 11.46-5.682 18.712z"/><path fill="#64892f" d="M26.334 51.58s6.785 1.248 8.422 0c2.208-1.682-1.295-9.625-3.469-11.346 0 0-4.63-.39-6.119 1.014 0 0 2.306 6.45 1.166 10.332zm-12.675.555s5.392-.334 6.447-1.6c1.423-1.707-2.517-7.123-4.454-8.027 0 0-3.606.582-4.523 1.939 0 0 2.787 4.498 2.53 7.688z"/><path fill="#4b662b" d="M56.251 14.059s-8.479-8.494-10.228-1.742c0 0 7.383 8.64 10.228 1.742z"/><path fill="#83bf4f" d="M37.446 2.6c5.86-6.414 29.32-.141 20.656 9.9 0 0-3.758-2-10.922-1.861 5.635 4.975 9.071 3.42 9.071 3.42 0 3.186-1.497 5.793-7.364 5.793-7.313 0 .606 19.789-5.89 19.789-3.805 0-4.593-15.718-4.878-16.626-1.564-4.978-4.613-16.101-.673-20.415zM1.104 38.375c-1.245 1.586-1.28 5.633-.87 6.453.408.82.984-1.133 1.791-2.893 1.4-3.051 4.067-3.725 2.227-4.863-.854-.525-2.512.49-3.148 1.303z"/><path d="M23.356 22.919l9.493 3.858 1.724 10.15H12.14l1.727-10.15zM9.911 21.588c3.587-3.592 7.823-5.78 12.71-5.917v6.079l-9.164 3.518zm14.162.155V15.67c4.887.137 9.144 2.325 12.731 5.917l-3.549 3.68zM8.805 22.767l3.873 4.004-1.972 10.149-.01.008h-8.54c1.06-5.557 3.416-10.465 6.65-14.161zm25.226 4.004l3.88-4.004c1.613 1.848 2.968 4.866 5.093 5.55 2.352.758 1 8.61-6.988 8.61-.003 0-.009-.007-.009-.007z" fill="#c1875d"/><path fill="#ffd93b" d="M44.53 39.105H2.192c0 5.639 4.847 7.822 21.17 7.822s21.168-2.183 21.168-7.822z"/><path d="M31.924 39.105a12.61 12.61 0 01-.496 2.22 10.206 10.206 0 01-.898 2.013c-.36.639-.807 1.232-1.303 1.805-.499.57-1.06 1.104-1.643 1.668a6.527 6.527 0 002.162-1.174 6.81 6.81 0 001.607-1.867 6.361 6.361 0 00.79-2.297c.104-.797.07-1.62-.219-2.368zm-17.124 0c-.29.748-.324 1.57-.219 2.367a6.361 6.361 0 00.79 2.297 6.792 6.792 0 001.605 1.867 6.547 6.547 0 002.162 1.174c-.584-.564-1.144-1.096-1.642-1.668-.495-.572-.943-1.166-1.304-1.805a10.261 10.261 0 01-.897-2.012 12.558 12.558 0 01-.495-2.22z" fill="#af921b"/><circle fill="#3e4347" cx="-47.261" cy="5.445" r="2.566" transform="scale(-1 1)"/><path fill="#4b662b" d="M57.361 5.954l.723.34-.272-.808-.722-.341z"/><path fill="#83bf4f" d="M32.197 54.889s8.926 1.906 11.081 0c2.905-2.57-1.705-14.705-4.565-17.332 0 0-6.092-.596-8.05 1.549 0-.001 3.034 9.853 1.534 15.783z"/><path fill="#6ea03f" d="M40.463 54.912c1.136-2.785 2.9-4.67 3.374-4.67.641 0 1.763 1.703 1.763 4.977 0 1.105-5.697 1.066-5.137-.307z"/><path fill="#83bf4f" d="M.46 45.95s4.564 7.923 6.893 7.759c3.138-.221 9.79-7.484 7.227-15.822 0 0-5.6-.826-7.899-.395 0 0 1.595 7.104-6.22 8.459z"/><path fill="#6ea03f" d="M5.406 52.227c2.02-1.311 4.066-1.666 4.394-1.414.44.342.455 2.107-.998 4.359-.49.76-4.39-2.3-3.396-2.945z"/></svg>