<?xml version="1.0" encoding="UTF-8" standalone="no"?>
<svg
   width="60.000694"
   height="55.998859"
   viewBox="0 0 60.000694 55.998859"
   version="1.1"
   id="svg38"
   xmlns="http://www.w3.org/2000/svg"
   xmlns:svg="http://www.w3.org/2000/svg">
  <defs
     id="defs42" />
  <path
     fill="#7d593e"
     d="M 3.1241872,41.478573 H 43.589188 c 0,-7.359 -5.679,-18.712 -5.679,-18.712 0.118,-0.5 -0.476,-1.219 -1.105,-1.179 l -12.731,-5.917 c -0.266,-0.374 -1.264,-0.295 -1.452,0 l -12.7100004,5.917 c -0.57,0.022 -1.164,0.741 -1.106,1.179 -10e-4,0 -5.6820004,11.46 -5.6820004,18.712 z"
     id="path2" />
  <path
     fill="#64892f"
     d="m 26.334188,51.579573 c 0,0 6.785,1.248 8.422,0 2.208,-1.682 -1.295,-9.625 -3.469,-11.346 0,0 -4.631,-0.389 -6.119,1.014 0,0 2.306,6.451 1.166,10.332 z m -12.675,0.555 c 0,0 5.392,-0.334 6.447,-1.6 1.423,-1.707 -2.517,-7.123 -4.454,-8.027 0,0 -3.606,0.582 -4.523,1.939 0,0 2.787,4.498 2.53,7.688 z"
     id="path4" />
  <path
     fill="#4b662b"
     d="m 56.251188,14.058573 c 0,0 -8.479,-8.4940002 -10.228,-1.742 0,0 7.383,8.64 10.228,1.742 z"
     id="path6" />
  <path
     fill="#83bf4f"
     d="m 37.446188,2.5995728 c 5.859,-6.414 29.319,-0.141 20.656,9.9000002 0,0 -3.758,-1.999 -10.922,-1.861 5.635,4.975 9.071,3.42 9.071,3.42 0,3.186 -1.497,5.793 -7.364,5.793 -7.313,0 0.606,19.789 -5.89,19.789 -3.805,0 -4.593,-15.718 -4.878,-16.626 -1.564,-4.978 -4.613,-16.1010002 -0.673,-20.4150002 z M 1.1041872,38.374573 c -1.24499999,1.586 -1.27999999,5.633 -0.86999999,6.453 0.408,0.82 0.98399999,-1.133 1.79099999,-2.893 1.399,-3.051 4.067,-3.725 2.227,-4.863 -0.854,-0.525 -2.512,0.491 -3.148,1.303 z"
     id="path8" />
  <g
     fill="#c1875d"
     id="g12"
     transform="matrix(-1,0,0,1,62.000188,-6.0004272)">
    <path
       d="m 38.644,28.919 -9.493,3.858 -1.724,10.151 H 49.86 L 48.133,32.777 Z m 13.445,-1.331 c -3.587,-3.592 -7.823,-5.78 -12.71,-5.917 v 6.079 l 9.164,3.518 z m -14.162,0.155 v -6.072 c -4.887,0.137 -9.144,2.325 -12.731,5.917 l 3.549,3.68 z"
       id="path10" />
  </g>
  <g
     fill="#c1875d"
     id="g16"
     transform="matrix(-1,0,0,1,62.000188,-6.0004272)">
    <path
       d="m 53.195,28.767 -3.873,4.004 1.972,10.149 0.011,0.008 h 8.54 C 58.784,37.371 56.428,32.463 53.195,28.767 Z M 27.969,32.771 24.09,28.767 c -1.614,1.848 -2.969,4.866 -5.094,5.55 -2.352,0.758 -1,8.611 6.988,8.611 0.003,0 0.009,-0.008 0.009,-0.008 z"
       id="path14" />
  </g>
  <path
     fill="#ffd93b"
     d="M 44.530188,39.104573 H 2.1921872 c 0,5.639 4.847,7.822 21.1700008,7.822 16.323,0 21.168,-2.183 21.168,-7.822 z"
     id="path18" />
  <g
     fill="#af921b"
     id="g22"
     transform="matrix(-1,0,0,1,62.000188,-6.0004272)">
    <path
       d="m 30.076,45.105 c 0.1,0.781 0.272,1.514 0.496,2.221 0.234,0.703 0.522,1.381 0.898,2.012 0.36,0.639 0.807,1.232 1.303,1.805 0.499,0.57 1.06,1.104 1.643,1.668 A 6.527,6.527 0 0 1 32.254,51.637 6.81,6.81 0 0 1 30.647,49.77 6.361,6.361 0 0 1 29.858,47.473 c -0.105,-0.797 -0.071,-1.619 0.218,-2.368 z m 17.124,0 c 0.29,0.748 0.324,1.57 0.219,2.367 a 6.361,6.361 0 0 1 -0.789,2.297 6.792,6.792 0 0 1 -1.606,1.867 6.547,6.547 0 0 1 -2.162,1.174 c 0.584,-0.564 1.144,-1.096 1.642,-1.668 0.495,-0.572 0.943,-1.166 1.304,-1.805 0.376,-0.631 0.662,-1.309 0.897,-2.012 0.224,-0.706 0.395,-1.438 0.495,-2.22 z"
       id="path20" />
  </g>
  <circle
     fill="#3e4347"
     cx="-47.261189"
     cy="5.4445724"
     r="2.566"
     id="circle24"
     transform="scale(-1,1)" />
  <path
     fill="#4b662b"
     d="m 57.361188,5.9535728 0.723,0.341 -0.272,-0.809 -0.722,-0.341 z"
     id="path26" />
  <path
     fill="#83bf4f"
     d="m 32.197188,54.888573 c 0,0 8.926,1.906 11.081,0 2.905,-2.57 -1.705,-14.705 -4.565,-17.332 0,0 -6.092,-0.596 -8.051,1.549 0,-10e-4 3.035,9.853 1.535,15.783 z"
     id="path28" />
  <path
     fill="#6ea03f"
     d="m 40.463188,54.911573 c 1.136,-2.785 2.899,-4.67 3.374,-4.67 0.641,0 1.763,1.703 1.763,4.977 0,1.105 -5.697,1.066 -5.137,-0.307 z"
     id="path30" />
  <g
     id="g36"
     transform="matrix(-1,0,0,1,62.000188,-6.0004272)">
    <path
       fill="#83bf4f"
       d="m 61.54,51.951 c 0,0 -4.564,7.922 -6.893,7.758 -3.138,-0.221 -9.79,-7.484 -7.227,-15.822 0,0 5.6,-0.826 7.899,-0.395 10e-4,0 -1.595,7.104 6.221,8.459 z"
       id="path32" />
    <path
       fill="#6ea03f"
       d="m 56.594,58.227 c -2.019,-1.311 -4.066,-1.666 -4.394,-1.414 -0.44,0.342 -0.455,2.107 0.998,4.359 0.49,0.76 4.39,-2.299 3.396,-2.945 z"
       id="path34" />
  </g>
</svg>
