<svg width="150.008" height="97.985" xmlns="http://www.w3.org/2000/svg"><path d="M113.93 61.09c-10.344 8.72-27.62 5.242-38.587-7.768-10.967-13.01-11.472-30.626-1.128-39.345 10.343-8.72 27.62-5.242 38.586 7.768 10.967 13.01 11.473 30.625 1.129 39.345z" fill="#729fcf"/><path d="M112.401 60.586c-10.268 8.656-27.122 5.554-37.645-6.928-10.522-12.482-10.727-29.618-.459-38.274 10.27-8.656 27.123-5.554 37.645 6.928 10.522 12.482 10.728 29.618.46 38.274z" fill="#eeeeec"/><path d="M104.482 50.56c0 12.273-11.193 22.222-25.001 22.222-13.808 0-25.001-9.95-25.001-22.223s11.193-22.223 25-22.223c13.808 0 25.001 9.95 25.001 22.223z" fill="#eeeeec"/><path d="M78.641 38.53c0 12.274-11.193 22.224-25 22.224-13.809 0-25.002-9.95-25.002-22.223 0-12.274 11.193-22.224 25.001-22.224 13.808 0 25.001 9.95 25.001 22.224z" fill="#729fcf"/><path d="M80.258 38.797c0 11.904-11.129 21.555-24.856 21.555-13.727 0-24.855-9.65-24.855-21.555s11.128-21.555 24.855-21.555 24.856 9.65 24.856 21.555z" fill="#eeeeec"/><path d="M72.992 71.391c0 6.555-5.201 11.87-11.617 11.87-6.416 0-11.617-5.315-11.617-11.87 0-6.555 5.201-11.87 11.617-11.87 6.416 0 11.617 5.315 11.617 11.87z" fill="#729fcf"/><path d="M73.346 70.648c0 6.457-5.12 11.691-11.438 11.691-6.317 0-11.438-5.234-11.438-11.69 0-6.457 5.12-11.691 11.438-11.691 6.317 0 11.438 5.234 11.438 11.69z" fill="#eeeeec"/><path d="M89.383 88.606c-7.971 1.318-15.502-3.805-16.82-11.443-1.318-7.638 4.076-14.898 12.048-16.216 7.971-1.319 15.502 3.804 16.82 11.442 1.318 7.638-4.076 14.899-12.048 16.217z" fill="#729fcf"/><path d="M89.694 87.209c-7.838 1.318-15.243-3.805-16.538-11.443C71.86 68.128 77.163 60.868 85 59.549c7.838-1.318 15.242 3.805 16.538 11.443 1.296 7.638-4.008 14.898-11.845 16.217z" fill="#eeeeec"/></svg>