<svg width="150.008" height="97.985" xmlns="http://www.w3.org/2000/svg"><path d="M95.627 43.236c0 5.99-8.932 10.845-19.95 10.845-11.018 0-19.95-4.855-19.95-10.845s8.932-10.845 19.95-10.845c11.018 0 19.95 4.855 19.95 10.845z" fill="#729fcf"/><path d="M95.166 43.721c0 5.628-8.772 10.19-19.593 10.19s-19.594-4.562-19.594-10.19c0-5.628 8.773-10.19 19.594-10.19 10.82 0 19.593 4.562 19.593 10.19z" fill="#eeeeec"/><path d="M77.614 53.725c0 6.555-5.201 11.87-11.617 11.87-6.416 0-11.617-5.315-11.617-11.87 0-6.555 5.201-11.87 11.617-11.87 6.416 0 11.617 5.315 11.617 11.87z" fill="#729fcf"/><path d="M77.968 52.982c0 6.457-5.12 11.69-11.438 11.69-6.317 0-11.438-5.233-11.438-11.69 0-6.456 5.121-11.69 11.438-11.69s11.438 5.234 11.438 11.69z" fill="#eeeeec"/><path d="M94.726 54.318c-1.318 6.147-7.174 10.139-13.08 8.915-5.905-1.223-9.624-7.198-8.305-13.345 1.318-6.147 7.173-10.138 13.079-8.915 5.905 1.223 9.624 7.198 8.306 13.345z" fill="#729fcf"/><path d="M93.803 53.695c-1.28 6.05-7.1 9.95-12.999 8.711-5.9-1.239-9.644-7.148-8.364-13.199 1.28-6.05 7.1-9.95 12.999-8.71 5.9 1.238 9.644 7.148 8.364 13.198z" fill="#eeeeec"/></svg>