<svg width="176.202" height="96.459" xmlns="http://www.w3.org/2000/svg"><path d="M47.656 47.453c0 11.1 10.123 20.097 22.61 20.097 12.488 0 22.611-8.998 22.611-20.097 0-11.1-10.123-20.099-22.61-20.099-12.488 0-22.61 8.998-22.61 20.099z" fill="#eeeeec"/><path d="M101.6 6.395C84.158 19.34 83.41 47.36 99.926 68.981c16.517 21.622 44.045 28.657 61.487 15.713 17.442-12.943 18.192-40.964 1.675-62.586C146.57.487 119.042-6.548 101.6 6.395z" fill="#729fcf"/><path d="M54.068 61.923c8.503 8.85 23.468 8.272 33.426-1.294 9.957-9.566 11.136-24.496 2.633-33.347-8.503-8.851-23.468-8.272-33.425 1.294-9.958 9.566-11.137 24.496-2.634 33.347z" fill="#729fcf"/><path d="M55.234 63.76c8.913 9.278 24.354 8.906 34.49-.83 10.135-9.737 11.126-25.151 2.213-34.43-8.913-9.277-24.354-8.905-34.49.831-10.135 9.737-11.126 25.151-2.213 34.43z" fill="#eeeeec"/><path d="M3.833 49.254c0 12.274 11.194 22.224 25.002 22.224 13.808 0 25.001-9.95 25.001-22.224 0-12.273-11.193-22.223-25.001-22.223-13.808 0-25.002 9.95-25.002 22.223z" fill="#729fcf"/><path d="M4.579 49.168c0 11.583 11.273 20.973 25.18 20.973 13.906 0 25.18-9.39 25.18-20.973 0-11.583-11.274-20.973-25.18-20.973-13.907 0-25.18 9.39-25.18 20.973z" fill="#eeeeec"/><path d="M96.401 62.913c-6.048 2.528-8.944 9.377-6.47 15.296 2.475 5.92 9.384 8.668 15.432 6.139 6.048-2.529 8.945-9.377 6.47-15.296-2.475-5.92-9.384-8.668-15.432-6.14z" fill="#729fcf"/><path d="M102.086 8.1C84.592 20.966 83.39 48.235 99.4 69.006c16.01 20.772 43.171 27.18 60.665 14.315 17.494-12.866 18.696-40.135 2.685-60.907C146.741 1.643 119.58-4.766 102.086 8.1z" fill="#eeeeec"/><path d="M96.95 62.3c-5.957 2.49-8.811 9.233-6.374 15.062 2.437 5.828 9.241 8.534 15.198 6.043 5.957-2.49 8.81-9.234 6.374-15.063-2.437-5.828-9.242-8.534-15.199-6.043z" fill="#eeeeec"/><path d="M54.973 75.053c0 11.823 10.244 21.406 22.882 21.406 12.637 0 22.882-9.583 22.882-21.406 0-11.822-10.245-21.406-22.882-21.406-12.638 0-22.882 9.584-22.882 21.406z" fill="#729fcf"/><path d="M54.848 74.497c0 11.573 10.003 20.954 22.343 20.954s22.344-9.381 22.344-20.954-10.003-20.954-22.344-20.954c-12.34 0-22.343 9.381-22.343 20.954z" fill="#eeeeec"/><path d="M.741 75.39c-3.167 8.082 4.107 13.032 16.247 11.055 12.14-1.978 24.55-10.132 27.718-18.215 3.167-8.082-4.107-13.031-16.247-11.054C16.319 59.153 3.909 67.308.74 75.39z" fill="#729fcf"/><path d="M1.982 75.018c-3.047 7.774 4.343 12.47 16.505 10.49 12.162-1.98 24.49-9.888 27.537-17.662 3.047-7.774-4.343-12.47-16.505-10.49-12.162 1.981-24.49 9.889-27.537 17.662z" fill="#eeeeec"/><path d="M42.395 87.955c8.613 1.424 16.75-4.11 18.174-12.364 1.424-8.253-4.404-16.097-13.017-17.522-8.614-1.424-16.75 4.111-18.174 12.364-1.424 8.253 4.404 16.098 13.017 17.522z" fill="#729fcf"/><path d="M42.06 86.445c8.469 1.425 16.469-4.11 17.869-12.363 1.4-8.253-4.33-16.098-12.799-17.522-8.469-1.425-16.469 4.11-17.87 12.364-1.4 8.252 4.331 16.097 12.8 17.521z" fill="#eeeeec"/></svg>