<svg width="150.008" height="97.985" xmlns="http://www.w3.org/2000/svg"><g stroke-width=".681"><path d="M67.543 39.392c0 8.327-7.594 15.077-16.962 15.077-9.368 0-16.962-6.75-16.962-15.077s7.594-15.078 16.962-15.078c9.368 0 16.962 6.75 16.962 15.078z" fill="#729fcf"/><path d="M69.184 40.16c0 8.328-7.784 15.078-17.386 15.078s-17.386-6.75-17.386-15.078c0-8.327 7.784-15.077 17.386-15.077s17.386 6.75 17.386 15.077z" fill="#eeeeec"/><path d="M47.325 52.584c0 6.719-6.06 12.165-13.535 12.165-7.476 0-13.536-5.446-13.536-12.165 0-6.718 6.06-12.164 13.536-12.164 7.475 0 13.535 5.446 13.535 12.164z" fill="#729fcf"/><path d="M47.706 52.874c0 6.313-5.952 11.43-13.293 11.43-7.342 0-13.294-5.117-13.294-11.43s5.952-11.43 13.294-11.43c7.341 0 13.293 5.117 13.293 11.43z" fill="#eeeeec"/><path d="M129.753 45.617c0 6.487-14.95 11.746-33.394 11.746-18.443 0-33.395-5.259-33.395-11.746 0-6.486 14.952-11.745 33.395-11.745 18.443 0 33.394 5.259 33.394 11.745z" fill="#729fcf"/><path d="M128.758 45.572c0 6.122-15.058 11.084-33.633 11.084-18.575 0-33.633-4.962-33.633-11.084S76.55 34.487 95.125 34.487c18.575 0 33.633 4.963 33.633 11.085z" fill="#eeeeec"/><path d="M48.353 62.35c0 4.448-3.528 8.053-7.881 8.053s-7.881-3.605-7.881-8.052c0-4.448 3.528-8.053 7.88-8.053 4.354 0 7.882 3.605 7.882 8.053z" fill="#729fcf"/><path d="M48.594 61.847c0 4.38-3.474 7.931-7.76 7.931s-7.76-3.55-7.76-7.931c0-4.38 3.474-7.932 7.76-7.932s7.76 3.551 7.76 7.932z" fill="#eeeeec"/><path d="M43.306 59.952c0 8.327 7.594 15.077 16.962 15.077 9.368 0 16.962-6.75 16.962-15.077s-7.594-15.078-16.962-15.078c-9.368 0-16.962 6.75-16.962 15.078z" fill="#729fcf"/><path d="M76.34 59.56c0 8.152-7.416 14.76-16.563 14.76-9.148 0-16.564-6.608-16.564-14.76 0-8.15 7.416-14.759 16.564-14.759 9.147 0 16.563 6.608 16.563 14.76z" fill="#eeeeec"/><path d="M75.309 29.918c-1.71-5.208-7.157-8.128-12.164-6.522-5.007 1.607-7.68 7.13-5.969 12.339 1.711 5.208 7.157 8.127 12.164 6.521 5.008-1.606 7.68-7.13 5.969-12.338z" fill="#729fcf"/><path d="M74.566 30.543c-1.669-5.127-7.075-7.971-12.075-6.352-5 1.62-7.701 7.09-6.033 12.217 1.67 5.128 7.076 7.971 12.076 6.352 5-1.62 7.7-7.09 6.032-12.217z" fill="#eeeeec"/></g></svg>