<svg width="150.008" height="97.985" xmlns="http://www.w3.org/2000/svg"><path d="M96.676 40.763c0 6.243-6.365 11.304-14.217 11.304s-14.217-5.061-14.217-11.304S74.607 29.46 82.46 29.46s14.217 5.061 14.217 11.304z" fill="#729fcf"/><path d="M96.044 41.152c0 6.198-6.107 11.222-13.64 11.222-7.534 0-13.64-5.024-13.64-11.222 0-6.197 6.106-11.22 13.64-11.22 7.533 0 13.64 5.023 13.64 11.22z" fill="#eeeeec"/><path d="M80.387 52.198c0 6.713-6.122 12.155-13.673 12.155-7.552 0-13.674-5.442-13.674-12.155 0-6.712 6.122-12.154 13.674-12.154 7.551 0 13.673 5.442 13.673 12.154z" fill="#729fcf"/><path d="M81.325 52.256c0 6.528-6.102 11.82-13.63 11.82-7.528 0-13.63-5.292-13.63-11.82 0-6.528 6.102-11.82 13.63-11.82 7.528 0 13.63 5.292 13.63 11.82z" fill="#eeeeec"/><path d="M96.968 58.267c0 5.666-5.167 10.258-11.541 10.258-6.374 0-11.54-4.592-11.54-10.258 0-5.666 5.166-10.258 11.54-10.258 6.374 0 11.54 4.592 11.54 10.258z" fill="#729fcf"/><path d="M96.624 58.227c0 5.347-5.204 9.682-11.623 9.682-6.42 0-11.624-4.335-11.624-9.682s5.204-9.681 11.624-9.681c6.419 0 11.623 4.334 11.623 9.681z" fill="#eeeeec"/></svg>