<svg width="150.008" height="97.985" xmlns="http://www.w3.org/2000/svg"><path d="M104.298 24.496c0 13.53-13.794 24.496-30.81 24.496-17.015 0-30.81-10.967-30.81-24.496C42.679 10.967 56.474 0 73.489 0c17.016 0 30.81 10.967 30.81 24.496z" fill="#729fcf"/><path d="M102.928 25.34c0 13.43-13.234 24.318-29.56 24.318-16.325 0-29.56-10.888-29.56-24.318 0-13.43 13.235-24.318 29.56-24.318 16.326 0 29.56 10.888 29.56 24.318z" fill="#eeeeec"/><path d="M105.56 55.558c0 12.274-11.193 22.224-25 22.224-13.808 0-25.002-9.95-25.002-22.224 0-12.273 11.194-22.223 25.002-22.223 13.807 0 25 9.95 25 22.223z" fill="#eeeeec"/><path d="M125.259 38.386c0 12.273-11.194 22.223-25.001 22.223-13.808 0-25.002-9.95-25.002-22.223 0-12.274 11.194-22.224 25.002-22.224 13.807 0 25 9.95 25 22.224zM69.7 45.457c0 12.274-11.193 22.223-25 22.223-13.809 0-25.002-9.95-25.002-22.223 0-12.274 11.193-22.223 25.001-22.223 13.808 0 25.002 9.95 25.002 22.223z" fill="#729fcf"/><path d="M72.12 46.59c0 12.274-11.474 22.223-25.627 22.223-14.153 0-25.626-9.95-25.626-22.223 0-12.274 11.473-22.223 25.626-22.223S72.12 34.317 72.12 46.59z" fill="#eeeeec"/><path d="M39.901 64.902c0 9.903-8.932 17.93-19.95 17.93C8.932 82.833 0 74.806 0 64.903 0 55 8.932 46.972 19.95 46.972c11.019 0 19.951 8.028 19.951 17.93z" fill="#729fcf"/><path d="M40.462 65.33c0 9.304-8.773 16.847-19.594 16.847-10.82 0-19.593-7.543-19.593-16.848s8.772-16.848 19.593-16.848 19.594 7.543 19.594 16.848zM125.691 40.519c0 12.865-11.393 23.294-25.448 23.294-14.054 0-25.447-10.43-25.447-23.294 0-12.866 11.393-23.295 25.447-23.295 14.055 0 25.448 10.43 25.448 23.295z" fill="#eeeeec"/><path d="M150.008 45.962c0 12.274-11.194 22.223-25.002 22.223-13.807 0-25-9.95-25-22.223 0-12.274 11.193-22.223 25-22.223 13.808 0 25.002 9.95 25.002 22.223z" fill="#729fcf"/><path d="M149.262 45.876c0 11.583-11.273 20.973-25.18 20.973-13.906 0-25.18-9.39-25.18-20.973 0-11.584 11.274-20.974 25.18-20.974 13.907 0 25.18 9.39 25.18 20.974z" fill="#eeeeec"/><path d="M41.416 79.297c0 6.555-5.2 11.87-11.617 11.87-6.415 0-11.616-5.315-11.616-11.87 0-6.555 5.2-11.87 11.616-11.87 6.416 0 11.617 5.315 11.617 11.87z" fill="#729fcf"/><path d="M41.77 78.554c0 6.457-5.12 11.691-11.437 11.691-6.318 0-11.439-5.234-11.439-11.69 0-6.457 5.121-11.691 11.439-11.691 6.317 0 11.438 5.234 11.438 11.69z" fill="#eeeeec"/><path d="M83.843 75.761c0 12.274-11.194 22.224-25.002 22.224-13.807 0-25-9.95-25-22.224 0-12.273 11.193-22.223 25-22.223 13.808 0 25.002 9.95 25.002 22.223z" fill="#729fcf"/><path d="M83.98 75.184c0 12.015-10.93 21.754-24.414 21.754-13.483 0-24.413-9.74-24.413-21.754 0-12.014 10.93-21.754 24.413-21.754s24.413 9.74 24.413 21.754z" fill="#eeeeec"/><path d="M138.896 65.66c0 12.274-11.193 22.223-25.001 22.223-13.808 0-25.002-9.95-25.002-22.223 0-12.274 11.194-22.223 25.002-22.223 13.807 0 25 9.95 25 22.223z" fill="#729fcf"/><path d="M137.566 65.385c0 11.805-11.213 21.375-25.046 21.375-13.832 0-25.046-9.57-25.046-21.375S98.688 44.01 112.52 44.01c13.833 0 25.046 9.57 25.046 21.375z" fill="#eeeeec"/><path d="M90.462 93.605c-7.971 1.319-15.502-3.805-16.82-11.442-1.318-7.638 4.076-14.899 12.048-16.217 7.971-1.318 15.502 3.805 16.82 11.443 1.318 7.638-4.076 14.898-12.048 16.216z" fill="#729fcf"/><path d="M90.772 92.208c-7.838 1.318-15.242-3.805-16.538-11.443-1.295-7.638 4.008-14.898 11.846-16.216 7.838-1.319 15.242 3.804 16.538 11.442 1.295 7.638-4.008 14.899-11.846 16.217z" fill="#eeeeec"/></svg>