<svg width="150.008" height="97.985" xmlns="http://www.w3.org/2000/svg"><path d="M91.156 47.617c0 4.318-11.193 7.818-25.001 7.818-13.808 0-25.001-3.5-25.001-7.818s11.193-7.818 25-7.818c13.809 0 25.002 3.5 25.002 7.818z" fill="#729fcf"/><path d="M91.873 47.695c0 4.166-11.07 7.544-24.727 7.544-13.656 0-24.727-3.378-24.727-7.544 0-4.167 11.07-7.544 24.727-7.544 13.656 0 24.727 3.377 24.727 7.544z" fill="#eeeeec"/><path d="M100.961 44.747c10.086 3.035 10.57 8.001 1.083 11.091-9.488 3.09-25.355 3.136-35.44.1-10.085-3.034-10.57-8-1.082-11.09 9.487-3.09 25.354-3.136 35.44-.1z" fill="#729fcf"/><path d="M100.1 44.852c9.97 2.915 10.451 7.683 1.076 10.65-9.376 2.967-25.06 3.009-35.03.094-9.97-2.915-10.45-7.683-1.075-10.65 9.376-2.966 25.059-3.009 35.029-.094z" fill="#eeeeec"/></svg>