<svg width="150.008" height="97.985" xmlns="http://www.w3.org/2000/svg"><path d="M102.333 51.573c0 4.875-11.193 8.826-25 8.826-13.809 0-25.002-3.951-25.002-8.826 0-4.874 11.193-8.825 25.001-8.825 13.808 0 25.001 3.951 25.001 8.825z" fill="#eeeeec"/><path d="M73.207 49.113c0 6.304-11.194 11.415-25.002 11.415-13.807 0-25-5.11-25-11.415 0-6.304 11.193-11.414 25-11.414 13.808 0 25.002 5.11 25.002 11.414z" fill="#729fcf"/><path d="M73.173 49.369c0 5.968-10.863 10.807-24.263 10.807-13.401 0-24.264-4.839-24.264-10.807 0-5.97 10.863-10.808 24.264-10.808 13.4 0 24.263 4.839 24.263 10.808z" fill="#eeeeec"/><path d="M69.851 45.631c.508 4.513 10.928 6.824 23.274 5.163 12.346-1.661 21.943-6.666 21.436-11.179-.508-4.512-10.928-6.824-23.274-5.162-12.346 1.66-21.943 6.666-21.436 11.178z" fill="#729fcf"/><path d="M69.333 46.176c.477 4.24 10.693 6.354 22.819 4.723 12.125-1.632 21.567-6.392 21.09-10.632-.477-4.24-10.693-6.355-22.818-4.723-12.125 1.631-21.568 6.391-21.09 10.632z" fill="#eeeeec"/><path d="M61.361 56.558c0 2.39 5.201 4.328 11.617 4.328 6.416 0 11.617-1.938 11.617-4.328 0-2.39-5.201-4.328-11.617-4.328-6.416 0-11.617 1.937-11.617 4.328z" fill="#729fcf"/><path d="M61.007 56.287c0 2.354 5.121 4.263 11.438 4.263s11.438-1.909 11.438-4.263-5.12-4.263-11.438-4.263c-6.317 0-11.438 1.909-11.438 4.263z" fill="#eeeeec"/><path d="M76.8 56.708c0 4.066 11.194 7.363 25.002 7.363 13.808 0 25.001-3.297 25.001-7.363 0-4.067-11.193-7.363-25-7.363-13.809 0-25.002 3.296-25.002 7.363z" fill="#729fcf"/><path d="M76.664 56.517c0 3.98 10.93 7.207 24.414 7.207 13.483 0 24.413-3.227 24.413-7.207s-10.93-7.208-24.413-7.208-24.414 3.227-24.414 7.208z" fill="#eeeeec"/></svg>