<svg width="150.008" height="97.985" xmlns="http://www.w3.org/2000/svg"><path d="M91.923 44.416c0 12.273-11.194 22.223-25.002 22.223-13.807 0-25-9.95-25-22.223 0-12.274 11.193-22.224 25-22.224 13.808 0 25.002 9.95 25.002 22.224z" fill="#729fcf"/><path d="M93.32 45.549c0 12.274-11.473 22.223-25.626 22.223s-25.627-9.95-25.627-22.223c0-12.274 11.474-22.223 25.627-22.223 14.153 0 25.626 9.95 25.626 22.223z" fill="#eeeeec"/><path d="M60.997 51.925c0 6.555-5.2 11.869-11.616 11.869-6.416 0-11.617-5.314-11.617-11.87 0-6.555 5.2-11.869 11.617-11.869 6.415 0 11.616 5.314 11.616 11.87z" fill="#729fcf"/><path d="M61.352 51.182c0 6.456-5.121 11.69-11.438 11.69s-11.438-5.234-11.438-11.69c0-6.457 5.12-11.691 11.438-11.691 6.317 0 11.438 5.234 11.438 11.69z" fill="#eeeeec"/><path d="M112.244 48.097c0 12.274-11.194 22.224-25.002 22.224-13.807 0-25-9.95-25-22.224 0-12.273 11.193-22.223 25-22.223 13.808 0 25.002 9.95 25.002 22.223z" fill="#729fcf"/><path d="M110.914 47.822c0 11.805-11.214 21.375-25.046 21.375-13.833 0-25.046-9.57-25.046-21.375s11.213-21.375 25.046-21.375c13.832 0 25.046 9.57 25.046 21.375z" fill="#eeeeec"/><path d="M58.053 75.577c-7.967-1.348-13.42-8.642-12.181-16.293 1.24-7.652 8.702-12.762 16.669-11.414 7.966 1.347 13.42 8.642 12.181 16.293-1.24 7.651-8.702 12.761-16.669 11.414z" fill="#729fcf"/><path d="M58.801 74.357c-7.84-1.304-13.174-8.558-11.914-16.202 1.26-7.644 8.637-12.783 16.477-11.48 7.84 1.304 13.175 8.558 11.915 16.202-1.26 7.644-8.638 12.783-16.478 11.48z" fill="#eeeeec"/></svg>