<svg width="150.008" height="97.985" xmlns="http://www.w3.org/2000/svg"><path d="M41.299 37.123c0 13.529 13.794 24.496 30.81 24.496 17.015 0 30.81-10.967 30.81-24.496 0-13.53-13.795-24.496-30.81-24.496-17.016 0-30.81 10.967-30.81 24.496z" fill="#729fcf"/><path d="M42.67 37.967c0 13.43 13.233 24.317 29.559 24.317 16.325 0 29.56-10.887 29.56-24.317s-13.235-24.318-29.56-24.318c-16.326 0-29.56 10.887-29.56 24.318z" fill="#eeeeec"/><path d="M43.324 55.558c0 12.274 11.193 22.224 25 22.224 13.809 0 25.002-9.95 25.002-22.224 0-12.273-11.193-22.223-25.001-22.223-13.808 0-25.001 9.95-25.001 22.223z" fill="#eeeeec"/><path d="M23.626 38.386c0 12.273 11.193 22.223 25 22.223 13.809 0 25.002-9.95 25.002-22.223 0-12.274-11.193-22.224-25.001-22.224-13.808 0-25.001 9.95-25.001 22.224zM79.712 52.114c0 12.273 11.194 22.223 25.002 22.223 13.807 0 25-9.95 25-22.223 0-12.274-11.193-22.224-25-22.224-13.808 0-25.002 9.95-25.002 22.224z" fill="#729fcf"/><path d="M77.293 53.247c0 12.273 11.473 22.223 25.626 22.223s25.627-9.95 25.627-22.223c0-12.274-11.474-22.224-25.627-22.224-14.153 0-25.626 9.95-25.626 22.224z" fill="#eeeeec"/><path d="M118.819 47.867c-8.576 4.952-11.062 16.701-5.553 26.243 5.509 9.542 16.927 13.264 25.503 8.313 8.576-4.952 11.062-16.7 5.553-26.243-5.51-9.542-16.928-13.264-25.503-8.313z" fill="#729fcf"/><path d="M118.168 47.595c-8.058 4.653-10.204 16.021-4.794 25.393 5.411 9.371 16.33 13.196 24.388 8.544 8.058-4.652 10.205-16.021 4.794-25.392-5.41-9.372-16.33-13.197-24.388-8.545zM23.193 40.519c0 12.865 11.394 23.294 25.448 23.294 14.055 0 25.448-10.43 25.448-23.294 0-12.866-11.393-23.295-25.448-23.295-14.054 0-25.448 10.43-25.448 23.295z" fill="#eeeeec"/><path d="M5.007 54.507c0 12.274 11.194 22.223 25.002 22.223 13.808 0 25.001-9.95 25.001-22.223 0-12.274-11.193-22.223-25.001-22.223-13.808 0-25.002 9.95-25.002 22.223z" fill="#729fcf"/><path d="M5.753 54.42c0 11.584 11.273 20.974 25.18 20.974 13.906 0 25.18-9.39 25.18-20.973 0-11.584-11.274-20.974-25.18-20.974-13.907 0-25.18 9.39-25.18 20.974z" fill="#eeeeec"/><path d="M107.468 79.297c0 6.555 5.201 11.87 11.617 11.87 6.416 0 11.617-5.315 11.617-11.87 0-6.555-5.201-11.87-11.617-11.87-6.416 0-11.617 5.315-11.617 11.87z" fill="#729fcf"/><path d="M107.114 78.554c0 6.457 5.12 11.691 11.438 11.691 6.317 0 11.438-5.234 11.438-11.69 0-6.457-5.121-11.691-11.438-11.691s-11.438 5.234-11.438 11.69z" fill="#eeeeec"/><path d="M64.672 70.426c0 12.273 11.193 22.223 25.001 22.223 13.808 0 25.002-9.95 25.002-22.223 0-12.274-11.194-22.224-25.002-22.224-13.808 0-25.001 9.95-25.001 22.224z" fill="#729fcf"/><path d="M64.535 69.849c0 12.014 10.93 21.754 24.414 21.754 13.483 0 24.413-9.74 24.413-21.754 0-12.015-10.93-21.754-24.413-21.754s-24.414 9.74-24.414 21.754z" fill="#eeeeec"/><path d="M3.246 80.034C8.075 91.318 22.28 96.061 34.974 90.629c12.695-5.433 19.07-18.984 14.242-30.268-4.829-11.283-19.034-16.027-31.729-10.594C4.793 55.199-1.583 68.75 3.246 80.034z" fill="#729fcf"/><path d="M4.36 79.258c4.645 10.853 18.719 15.24 31.436 9.797 12.717-5.442 19.26-18.652 14.616-29.505-4.644-10.853-18.718-15.24-31.435-9.797C6.26 55.195-.284 68.405 4.36 79.258z" fill="#eeeeec"/><path d="M56.945 87.507c6.511 1.077 12.662-3.108 13.739-9.346 1.076-6.24-3.33-12.17-9.84-13.247-6.512-1.077-12.664 3.108-13.74 9.347-1.077 6.239 3.33 12.17 9.84 13.246z" fill="#729fcf"/><path d="M56.691 86.366c6.403 1.077 12.45-3.108 13.51-9.347 1.058-6.239-3.274-12.17-9.677-13.246-6.402-1.077-12.45 3.108-13.508 9.347-1.059 6.239 3.273 12.17 9.675 13.246z" fill="#eeeeec"/></svg>