<svg width="161.695" height="92.375" xmlns="http://www.w3.org/2000/svg"><path d="M59.008 24.496c0 13.53 13.794 24.496 30.81 24.496s30.81-10.967 30.81-24.496C120.628 10.967 106.834 0 89.818 0s-30.81 10.967-30.81 24.496z" fill="#729fcf"/><path d="M60.379 25.34c0 13.43 13.234 24.318 29.56 24.318 16.325 0 29.559-10.888 29.559-24.318 0-13.43-13.234-24.318-29.56-24.318-16.325 0-29.56 10.888-29.56 24.318z" fill="#eeeeec"/><path d="M61.178 50.825c0 6.332 5.775 11.465 12.898 11.465 7.123 0 12.898-5.133 12.898-11.465 0-6.331-5.775-11.464-12.898-11.464-7.123 0-12.898 5.133-12.898 11.464z" fill="#eeeeec"/><path d="M18.618 38.584c0 12.273 11.194 22.223 25.001 22.223 13.808 0 25.002-9.95 25.002-22.223 0-12.274-11.194-22.224-25.002-22.224-13.807 0-25 9.95-25 22.224zM91.353 55.737c1.762 17.42 18.905 29.953 38.29 27.992 19.383-1.961 33.668-17.674 31.905-35.095-1.763-17.421-18.905-29.953-38.29-27.992-19.383 1.961-33.668 17.673-31.905 35.095z" fill="#729fcf"/><path d="M90.442 56.587c1.657 16.37 18.432 28.078 37.469 26.152 19.037-1.926 33.126-16.758 31.47-33.127-1.656-16.37-18.431-28.078-37.468-26.152-19.037 1.926-33.127 16.758-31.47 33.127zM18.186 40.717c0 12.865 11.393 23.294 25.448 23.294 14.054 0 25.447-10.43 25.447-23.294 0-12.866-11.393-23.295-25.447-23.295-14.055 0-25.448 10.43-25.448 23.295z" fill="#eeeeec"/><path d="M0 54.705c0 12.274 11.193 22.223 25.001 22.223 13.808 0 25.002-9.95 25.002-22.223 0-12.274-11.194-22.223-25.002-22.223C11.193 32.482 0 42.432 0 54.705z" fill="#729fcf"/><path d="M.745 54.619c0 11.583 11.274 20.973 25.18 20.973s25.18-9.39 25.18-20.973c0-11.584-11.274-20.974-25.18-20.974S.745 43.035.745 54.62z" fill="#eeeeec"/><path d="M97.745 58.96c-6.048 2.528-8.945 9.377-6.47 15.296 2.475 5.919 9.384 8.668 15.432 6.139 6.048-2.529 8.945-9.377 6.47-15.296-2.475-5.92-9.384-8.668-15.432-6.14z" fill="#729fcf"/><path d="M98.293 58.346c-5.957 2.49-8.81 9.234-6.373 15.063 2.436 5.828 9.24 8.534 15.198 6.043 5.957-2.49 8.81-9.234 6.374-15.063-2.437-5.828-9.242-8.534-15.199-6.043z" fill="#eeeeec"/><path d="M77.63 60.168c0 6.368 5.808 11.53 12.973 11.53 7.164 0 12.972-5.162 12.972-11.53 0-6.368-5.808-11.531-12.972-11.531-7.165 0-12.973 5.163-12.973 11.53z" fill="#729fcf"/><path d="M77.56 59.869c0 6.233 5.67 11.287 12.667 11.287 6.995 0 12.667-5.054 12.667-11.287 0-6.234-5.672-11.288-12.667-11.288-6.996 0-12.668 5.054-12.668 11.288z" fill="#eeeeec"/><path d="M11.04 89.18c10.325 6.637 24.747 2.6 32.212-9.016 7.466-11.615 5.148-26.411-5.178-33.047-10.325-6.636-24.747-2.6-32.212 9.016C-1.603 67.75.715 82.545 11.04 89.181z" fill="#729fcf"/><path d="M11.527 87.913c9.931 6.383 24.045 2.124 31.523-9.513 7.48-11.636 5.491-26.243-4.44-32.626-9.93-6.383-24.044-2.124-31.523 9.513-7.479 11.636-5.49 26.244 4.44 32.626z" fill="#eeeeec"/><path d="M60.063 82.047c8.614 1.425 16.75-4.11 18.174-12.363 1.424-8.253-4.404-16.098-13.017-17.522-8.613-1.425-16.75 4.11-18.174 12.364-1.424 8.252 4.404 16.097 13.017 17.521z" fill="#729fcf"/><path d="M59.728 80.538c8.469 1.424 16.47-4.111 17.87-12.364 1.4-8.253-4.33-16.098-12.8-17.522-8.468-1.425-16.469 4.111-17.869 12.364-1.4 8.253 4.33 16.097 12.8 17.522z" fill="#eeeeec"/></svg>