<svg width="150.008" height="97.985" xmlns="http://www.w3.org/2000/svg"><g stroke-width=".828"><path d="M84.825 44.99c0 7.02-6.402 12.71-14.298 12.71-7.897 0-14.299-5.69-14.299-12.71 0-7.019 6.402-12.71 14.299-12.71 7.896 0 14.298 5.691 14.298 12.71z" fill="#729fcf"/><path d="M86.208 45.638c0 7.02-6.561 12.71-14.655 12.71-8.095 0-14.656-5.69-14.656-12.71 0-7.019 6.561-12.71 14.656-12.71 8.094 0 14.655 5.691 14.655 12.71z" fill="#eeeeec"/><path d="M74.354 40.462c0 4.82 4.349 8.729 9.713 8.729 5.364 0 9.712-3.908 9.712-8.73 0-4.82-4.348-8.728-9.712-8.728s-9.713 3.908-9.713 8.729z" fill="#729fcf"/><path d="M74.081 40.67c0 4.53 4.27 8.202 9.539 8.202 5.268 0 9.539-3.673 9.539-8.203 0-4.53-4.271-8.202-9.54-8.202-5.267 0-9.538 3.672-9.538 8.202z" fill="#eeeeec"/><path d="M74.298 54.847c0 4.82 4.349 8.729 9.713 8.729 5.364 0 9.713-3.908 9.713-8.73 0-4.82-4.349-8.728-9.713-8.728-5.364 0-9.713 3.908-9.713 8.729z" fill="#729fcf"/><path d="M77.889 56.438c0 5.42-4.3 9.814-9.605 9.814-5.305 0-9.606-4.394-9.606-9.814s4.3-9.814 9.606-9.814c5.305 0 9.605 4.394 9.605 9.814z" fill="#729fcf"/><path d="M74.025 55.055c0 4.53 4.271 8.202 9.54 8.202 5.267 0 9.538-3.672 9.538-8.202 0-4.53-4.27-8.202-9.539-8.202-5.268 0-9.539 3.672-9.539 8.202z" fill="#eeeeec"/><path d="M78.182 55.824c0 5.339-4.234 9.666-9.458 9.666-5.223 0-9.457-4.327-9.457-9.666s4.234-9.667 9.457-9.667c5.224 0 9.458 4.328 9.458 9.667z" fill="#eeeeec"/></g></svg>