<svg width="64" height="64" xmlns="http://www.w3.org/2000/svg"><defs><filter id="A" x="0" y="0" width="1" height="1" color-interpolation-filters="sRGB"><feColorMatrix values="1 0 0 -0.716172 -0 0 1 0 -0.716172 -0 0 0 1 -0.716172 -0 0 0 0 1 0"/></filter><filter id="z" x="0" y="0" width="1" height="1" color-interpolation-filters="sRGB"><feColorMatrix values="1 0 0 -0.716172 -0 0 1 0 -0.716172 -0 0 0 1 -0.716172 -0 0 0 0 1 0"/></filter><filter id="y" x="0" y="0" width="1" height="1" color-interpolation-filters="sRGB"><feColorMatrix values="1 0 0 -0.716172 -0 0 1 0 -0.716172 -0 0 0 1 -0.716172 -0 0 0 0 1 0"/></filter><filter id="x" x="0" y="0" width="1" height="1" color-interpolation-filters="sRGB"><feColorMatrix values="1 0 0 -0.716172 -0 0 1 0 -0.716172 -0 0 0 1 -0.716172 -0 0 0 0 1 0"/></filter><filter id="w" x="0" y="0" width="1" height="1" color-interpolation-filters="sRGB"><feColorMatrix values="1 0 0 -0.716172 -0 0 1 0 -0.716172 -0 0 0 1 -0.716172 -0 0 0 0 1 0"/></filter><filter id="v" x="0" y="0" width="1" height="1" color-interpolation-filters="sRGB"><feColorMatrix values="1 0 0 -0.716172 -0 0 1 0 -0.716172 -0 0 0 1 -0.716172 -0 0 0 0 1 0"/></filter><filter id="u" x="0" y="0" width="1" height="1" color-interpolation-filters="sRGB"><feColorMatrix values="1 0 0 -0.716172 -0 0 1 0 -0.716172 -0 0 0 1 -0.716172 -0 0 0 0 1 0"/></filter><filter id="t" x="0" y="0" width="1" height="1" color-interpolation-filters="sRGB"><feColorMatrix values="1 0 0 -0.716172 -0 0 1 0 -0.716172 -0 0 0 1 -0.716172 -0 0 0 0 1 0"/></filter><filter id="s" x="0" y="0" width="1" height="1" color-interpolation-filters="sRGB"><feColorMatrix values="1 0 0 -0.716172 -0 0 1 0 -0.716172 -0 0 0 1 -0.716172 -0 0 0 0 1 0"/></filter><filter id="r" x="0" y="0" width="1" height="1" color-interpolation-filters="sRGB"><feColorMatrix values="1 0 0 -0.716172 -0 0 1 0 -0.716172 -0 0 0 1 -0.716172 -0 0 0 0 1 0"/></filter><filter id="q" x="0" y="0" width="1" height="1" color-interpolation-filters="sRGB"><feColorMatrix values="1 0 0 -0.716172 -0 0 1 0 -0.716172 -0 0 0 1 -0.716172 -0 0 0 0 1 0"/></filter><filter id="p" x="0" y="0" width="1" height="1" color-interpolation-filters="sRGB"><feColorMatrix values="1 0 0 -0.716172 -0 0 1 0 -0.716172 -0 0 0 1 -0.716172 -0 0 0 0 1 0"/></filter><filter id="o" x="0" y="0" width="1" height="1" color-interpolation-filters="sRGB"><feColorMatrix values="1 0 0 -0.716172 -0 0 1 0 -0.716172 -0 0 0 1 -0.716172 -0 0 0 0 1 0"/></filter><filter id="n" x="0" y="0" width="1" height="1" color-interpolation-filters="sRGB"><feColorMatrix values="1 0 0 -0.716172 -0 0 1 0 -0.716172 -0 0 0 1 -0.716172 -0 0 0 0 1 0"/></filter><filter id="m" x="0" y="0" width="1" height="1" color-interpolation-filters="sRGB"><feColorMatrix values="1 0 0 -0.716172 -0 0 1 0 -0.716172 -0 0 0 1 -0.716172 -0 0 0 0 1 0"/></filter><filter id="l" x="0" y="0" width="1" height="1" color-interpolation-filters="sRGB"><feColorMatrix values="1 0 0 -0.716172 -0 0 1 0 -0.716172 -0 0 0 1 -0.716172 -0 0 0 0 1 0"/></filter><filter id="k" x="0" y="0" width="1" height="1" color-interpolation-filters="sRGB"><feColorMatrix values="1 0 0 -0.716172 -0 0 1 0 -0.716172 -0 0 0 1 -0.716172 -0 0 0 0 1 0"/></filter><filter id="j" x="0" y="0" width="1" height="1" color-interpolation-filters="sRGB"><feColorMatrix values="1 0 0 -0.716172 -0 0 1 0 -0.716172 -0 0 0 1 -0.716172 -0 0 0 0 1 0"/></filter><filter id="i" x="0" y="0" width="1" height="1" color-interpolation-filters="sRGB"><feColorMatrix values="1 0 0 -0.716172 -0 0 1 0 -0.716172 -0 0 0 1 -0.716172 -0 0 0 0 1 0"/></filter><filter id="h" x="0" y="0" width="1" height="1" color-interpolation-filters="sRGB"><feColorMatrix values="1 0 0 -0.716172 -0 0 1 0 -0.716172 -0 0 0 1 -0.716172 -0 0 0 0 1 0"/></filter><filter id="g" x="0" y="0" width="1" height="1" color-interpolation-filters="sRGB"><feColorMatrix values="1 0 0 -0.716172 -0 0 1 0 -0.716172 -0 0 0 1 -0.716172 -0 0 0 0 1 0"/></filter><filter id="f" x="0" y="0" width="1" height="1" color-interpolation-filters="sRGB"><feColorMatrix values="1 0 0 -0.716172 -0 0 1 0 -0.716172 -0 0 0 1 -0.716172 -0 0 0 0 1 0"/></filter><filter id="e" x="0" y="0" width="1" height="1" color-interpolation-filters="sRGB"><feColorMatrix values="1 0 0 -0.716172 -0 0 1 0 -0.716172 -0 0 0 1 -0.716172 -0 0 0 0 1 0"/></filter><filter id="d" x="0" y="0" width="1" height="1" color-interpolation-filters="sRGB"><feColorMatrix values="1 0 0 -0.716172 -0 0 1 0 -0.716172 -0 0 0 1 -0.716172 -0 0 0 0 1 0"/></filter><filter id="c" x="0" y="0" width="1" height="1" color-interpolation-filters="sRGB"><feColorMatrix values="1 0 0 -0.716172 -0 0 1 0 -0.716172 -0 0 0 1 -0.716172 -0 0 0 0 1 0"/></filter><filter id="b" x="0" y="0" width="1" height="1" color-interpolation-filters="sRGB"><feColorMatrix values="1 0 0 -0.716172 -0 0 1 0 -0.716172 -0 0 0 1 -0.716172 -0 0 0 0 1 0"/></filter><filter id="a" x="0" y="0" width="1" height="1" color-interpolation-filters="sRGB"><feColorMatrix values="1 0 0 -0.716172 -0 0 1 0 -0.716172 -0 0 0 1 -0.716172 -0 0 0 0 1 0"/></filter></defs><circle fill="#D0D0D0" cx="54.5" cy="13.166" r="3" filter="url(#a)"/><circle fill="#D0D0D0" cx="49.5" cy="11.242" r="4.242" filter="url(#b)"/><circle fill="#D0D0D0" cx="48" cy="7.799" r="4.799" filter="url(#c)"/><path fill="#E8E8E8" d="M47.093 5.02a5.309 5.309 0 014.967 3.446 3.943 3.943 0 00-3.919-4.375c-1.14 0-2.164.487-2.883 1.261a5.29 5.29 0 011.835-.332z" filter="url(#d)"/><path fill="#E8E8E8" d="M48.232 8.276a5.31 5.31 0 014.967 3.446 3.943 3.943 0 00-3.919-4.375c-1.14 0-2.165.487-2.884 1.261a5.3 5.3 0 011.836-.332z" filter="url(#e)"/><path fill="#E8E8E8" d="M53.36 11.689a3.831 3.831 0 013.585 2.486 2.846 2.846 0 00-4.91-2.248c.414-.151.86-.238 1.325-.238z" filter="url(#f)"/><path fill="#62727A" d="M63 60H1c-.55 0-1 .45-1 1v2c0 .55.45 1 1 1h62c.549 0 1-.45 1-1v-2c0-.55-.451-1-1-1z" filter="url(#g)"/><path fill="#F15744" d="M39 40L27 30v10L15 30v10L3 30v30h48V40z" filter="url(#h)"/><path fill="#D33B23" d="M51.799 43.2h8.4l-.4-8.4h-7.6zM59.4 26.4L59 18h-6l-.4 8.4zm-8 25.2L51 60h10l-.4-8.4z" filter="url(#i)"/><path d="M59.4 26.4h-6.8l-.401 8.4h7.6zm-8 25.2h9.2l-.401-8.4h-8.4z" fill="#D0D0D0" filter="url(#j)"/><path fill="#F9F3D9" d="M3 45h36v10H3z" filter="url(#k)"/><path fill="#ffd500" d="M3 46h35v8H3z"/><path fill="#89664C" d="M42 50h6v10h-6z" filter="url(#l)"/><path fill="#D33B23" d="M41 48h8v2h-8z" filter="url(#m)"/><path fill="#F9F3D9" d="M3 49.5h35v1H3z" filter="url(#n)"/><path fill="#F9F3D9" d="M14.5 45h1v10h-1zm12 0h1v10h-1z" filter="url(#o)"/><circle fill="#DBB471" cx="46.5" cy="54.5" r=".5" filter="url(#p)"/><path fill="#D0D0D0" d="M42 60h6v2h-6z" filter="url(#q)"/><path fill="#E8E8E8" d="M41 62h8v2h-8z" filter="url(#r)"/><circle fill="#D0D0D0" cx="56.5" cy="16" r="2" filter="url(#s)"/><circle fill="#D0D0D0" cx="41.999" cy="5.083" r="5.083" filter="url(#t)"/><circle fill="#D0D0D0" cx="33.916" cy="5.861" r="5.861" filter="url(#u)"/><circle fill="#D0D0D0" cx="26.541" cy="4.955" r="4.955" filter="url(#v)"/><circle fill="#D0D0D0" cx="18.354" cy="7" r="7" filter="url(#w)"/><circle fill="#D0D0D0" cx="10.586" cy="9.174" r="9.174" filter="url(#x)"/><path fill="#E8E8E8" d="M8.116 3.276c4.67 0 8.642 2.945 10.191 7.073a8.092 8.092 0 00-8.04-8.977c-2.339 0-4.44.999-5.917 2.587a10.84 10.84 0 013.766-.683z" filter="url(#y)"/><path fill="#E8E8E8" d="M16.522 2.872c3.679 0 6.808 2.32 8.026 5.571.025-.229.041-.462.041-.698a6.374 6.374 0 00-6.373-6.372 6.345 6.345 0 00-4.661 2.038 8.52 8.52 0 012.967-.539zm8.66-.799a6.147 6.147 0 015.754 3.993A4.569 4.569 0 0026.397.998a4.55 4.55 0 00-3.341 1.461 6.12 6.12 0 012.126-.386z" filter="url(#z)"/><path fill="#E8E8E8" d="M32.225 2.416A7.055 7.055 0 0138.829 7a5.244 5.244 0 00-5.211-5.818 5.22 5.22 0 00-3.835 1.677 7.015 7.015 0 012.442-.443zm8.539-.305a5.988 5.988 0 015.605 3.89 4.45 4.45 0 00-4.423-4.937c-1.286 0-2.442.55-3.255 1.423a5.965 5.965 0 012.073-.376zm14.98 12.771c1.09 0 2.017.688 2.379 1.649a1.888 1.888 0 00-3.258-1.49c.275-.102.571-.159.879-.159z" filter="url(#A)"/></svg>