<svg width="1535.992" height="352.851" viewBox="0 0 406.398 93.359" xmlns="http://www.w3.org/2000/svg"><defs><linearGradient id="a" gradientUnits="userSpaceOnUse" x1="1200" y1="1700" x2="1200" y2="521.333" gradientTransform="translate(-.002 -88.278) scale(.16933)"><stop offset="0" stop-color="#c3eef9"/><stop offset=".423" stop-color="#c1edf9"/><stop offset=".629" stop-color="#b9ebf8"/><stop offset=".787" stop-color="#ace7f7"/><stop offset=".914" stop-color="#9be2f5"/></linearGradient></defs><path d="M406.398 77.35V39.58l-1.284-.314c-9.248-2.22-18.394-4.746-27.788-6.53-4.636-.88-9.12-2.39-13.975-2.025-4.246.318-8.456.387-12.637-.536-7.054-1.557-13.968-3.33-20.019-7.083a26.148 26.148 0 00-9.138-3.49c-3.57-.64-6.707-2.254-10.154-3.146-1.87-.485-3.739-.35-5.488.246-5.84 1.99-11.578 1.458-17.274-.39-2.964-.96-6.102-1.262-9.13-1.953-3.62-.827-6.95-2.507-10.702-2.98-2.47-.312-4.969-.465-7.456-.68-1.643-.141-3.075-.791-4.515-1.41-2.27-.974-4.518-1.975-7.094-2.243-1.722-.18-3.307.217-4.835.78-1.464.54-2.923.623-4.49.523-1.57-.1-3.183-.063-4.74.135-2.406.304-4.794.236-7.184.039-2.438-.201-4.894-.276-7.22.377-3.494.98-6.536.186-9.48-1.377-4.056-2.15-8.06-4.377-12.18-6.43-2.944-1.468-5.877-1.27-8.525.713-.33.248-.64.29-1.107.178a78.4 78.4 0 00-11.648-1.93c-5.128-.448-8.525 1.96-11.35 5.296-2.678 3.16-5.248 6.397-8.638 9.05-2.237 1.75-4.79 2.5-7.81 2.21-1.927-.183-3.876-.22-5.816-.248-3.208-.048-6.144-.99-9.105-1.917-2.853-.894-5.785-.941-8.75-.395-1.044.193-2.124.358-3.183.342-2.952-.043-5.41.916-7.42 2.7-2.502 2.223-5.042 4.334-8.646 5.186-1.362.322-2.629.975-3.546 1.912-1.644 1.677-3.878 2.17-6.18 2.612-3.779.723-7.444 2.01-11.4 1.857-1.806-.07-3.598-.367-5.403-.496-2.987-.213-5.73.416-8.173 1.945-2.89 1.808-6.338 2.13-9.67 2.759-5.355 1.01-10.438 2.817-15.715 4.05-2.237.524-4.528.886-6.81 1.25-3.37.54-6.512 1.62-9.317 3.276-4.267 2.517-8.945 3.803-14.043 4.13-6.12.393-11.73 2.265-17.19 4.55l-.17.07v27.066h45.48l89.595.56z" opacity=".278" fill="url(#a)"/><g stroke-width=".265"><path d="M132.311 63.475c1.338-1.7 16.53-9.987 16.53-9.987l12.185-10.216 22.73-3.244 14.468-6.096s15.23-9.525 17.6-10.287c2.37-.762 16.727-11.186 16.727-11.186s10.24 8.517 11.478 9.66c1.24 1.145 9.953 10.29 9.953 10.29l20.222 7.62 42.506 34.04s-41.148 12.063-45.482 13.603c-4.334 1.543-88.623-2.31-88.623-2.31l-48.413-5.4c0-.003-3.22-14.785-1.88-16.486z" fill="#c9e0c3"/><path d="M218.602 43.833c-.456-1.144-2.255-.95-3.09-.046-.838.901-1.138 2.18-1.86 3.18-1.134 1.571-3.114 2.23-4.753 3.268-4.323 2.741-6.12 8.012-8.3 12.646a55.332 55.332 0 01-11.696 16.308l-.63-6.49a8614.49 8614.49 0 01-8.437 2.045c-.669.162-1.337.326-2.006.487-7.26 1.761-14.522 3.52-21.782 5.282a210.125 210.125 0 017.747-15.684c2.005-3.67 4.156-7.327 7.117-10.28 2.96-2.954 6.847-5.178 11.024-5.372a18.85 18.85 0 01-1.07 8.18 48.917 48.917 0 0016.593-11.9l-1.59 5.901c.213-.798 3.854-2.45 4.62-2.972a107.866 107.866 0 0013.592-10.955 107.411 107.411 0 007.896-8.335c1.62-1.902 3.606-5.782 6.516-5.6.101 2.638-3.205 7.007-4.438 9.464-1.815 3.622-3.634 7.246-5.453 10.873zm20.003 5.657c-.212-.434-.424-.868-.633-1.305-1.725 1.157-.397 4.236 1.657 4.525 2.053.288 3.934-1.217 5.196-2.866a102.055 102.055 0 01-5.1 30.115 33.121 33.121 0 00-2.59-16.412c-3.243 5.006-6.48 10.012-9.722 15.02 2.564-13.25 5.125-26.503 7.69-39.753.758-3.926.853-9.628 2.753-13.084 1.66 1.963 1.413 5.607 1.36 8.078-.106 5.226-.405 10.456-.61 15.682zm-12.8 3.693a24.384 24.384 0 00-8.147 8.181 11.62 11.62 0 001.875-5.588A77.366 77.366 0 00202.29 80.88c.36-.84 8.721-1.06 10.047-1.788 2.056-1.128 2.447-3.112 3.42-5.189 3.258-6.945 6.697-13.814 10.047-20.72zm42.917-10.967c-.38 2.326-.764 4.655-1.145 6.98-6.337-4.834-12.677-9.668-19.013-14.502 5.947 7.85 11.898 15.7 17.846 23.554.72-1.027 1.437-2.054 2.156-3.083l8.152 16.928c4.022 8.353 13.298 2.62 8.853-5.3-4.797-8.55-11.287-16.499-16.849-24.577z" fill="#b9d3b2"/><path d="M40.13 76.721l5.93-5.234s8.593-1.54 9.28-.74c.688.8 7.91-3.42 7.91-3.42l9.265-8.825 12.906-6.9 19.37-10.907 6.588 9.607h19.275l23.011 19.915-41.259 20.027s-73.22 1.95-74.742 3.064c-1.52 1.114 2.466-16.587 2.466-16.587z" fill="#c9e0c3"/><path d="M106.564 71.835c-.066-1.762-.135-3.524-.2-5.286-.014-.318-.033-.659-.223-.913-.55-.735-1.73-.045-2.194.75-.463.793-.957 1.832-1.875 1.814-.088-1.556-.178-3.112-.265-4.67-2.826 5.802-5.649 11.605-8.475 17.404 4.871-1.296 12.124-1.84 16.27-4.876 2.905-2.127 3.328-6.353 3.447-9.68-2.53 1.126-4.79 3.275-6.485 5.457zM95.04 52.506c-4.575 4.36-9.15 8.723-13.727 13.084.736-.24.318-1.522-.45-1.609-.767-.087-1.429.51-1.96 1.07A80.8 80.8 0 0067.76 79.806c-.706 1.2-1.352 2.818-.442 3.868 1.786 2.064 9.16-.402 11.266-1.484 2.366-1.215 3.42-3.247 4.784-5.42 2.347-3.743 4.813-7.354 6.776-11.326a71.794 71.794 0 002.87-6.635c.522-1.4 1.011-5.34 2.025-6.303z" fill="#b9d3b2"/></g><path d="M406.393 44.277l-16.02-16.729s-4.286-3.048-6.326-5.715-12.06-8.382-14.668-10.668c-2.61-2.286-18.585 4.572-18.585 4.572s-9.599 8.382-11.67 9.525c-2.072 1.143-6.787 9.917-9.573 10.102-2.786.185-15.827 4.95-17.69 5.043-1.86.095-14.435-2.36-15.959-.561-1.524 1.799-13.142 14.639-14.82 15.642-.48.288-1.671 1.249-3.121 2.47-4.961-3.447-10.144-6.76-12.589-5.426-1.71.942-7.977-3.516-10.274-3.365-2.299.153-10.675 15.78-12.21 15.856-1.534.077-11.906-1.947-13.163-.463-1.256 1.484-10.84 12.076-12.223 12.901-1.384.826-9.848 8.39-9.848 8.39l88.37 3.707c4.46-3.834 8.667-8.102 14.001-10.721 4.67-2.294 12.151 7.989 12 1.366-.013-.584 6.262 5.614 6.183 5.106l40.3-2.317 37.885 2.102z" fill="#c9e0c3"/><path d="M248.506 77.63c4.4-7.221 8.803-14.44 13.203-21.661-.461 1.615-.916 3.392-.23 4.926.685 1.534 3.072 2.303 4.053.94.623-.867.719-2.428 1.785-2.44.667-.009 1.102.702 1.28 1.346.18.644.287 1.376.813 1.788.526.411 1.572-.01 1.345-.638a89.412 89.412 0 01-5.95 21.631c-4.083-2.257-9.078-2.804-13.553-1.482m58.494-38.387c0 2.267 1 4.516 2.683 6.036a17.804 17.804 0 017.184-10.11c-1.212.719-.996 2.767.187 3.535 1.183.768 2.824.436 3.952-.409 1.13-.845 1.863-2.102 2.566-3.327-.086 2.217-.17 4.432-.257 6.649 1.023-1.056.511.587 2.592-2.637-4.614 8.232-5.575 9.428-10.19 17.66a74.882 74.882 0 0119.757-21.053c-.144 1.903-.29 3.805-.433 5.707a13.564 13.564 0 015.424-3.26c.23 1.305.46 2.608.692 3.913a28.025 28.025 0 018.344-4.978c-.014 1.525-.028 3.05-.04 4.573a87.805 87.805 0 016.735-23.227 72.508 72.508 0 012.197 22.889c-.237 3.714-.884 7.676-3.449 10.372-3.25 3.42-8.471 3.76-13.162 4.247-11.31 1.177-22.291 4.526-32.402 9.706-3.036 1.556-8.659 5.508-11.75 2.106-2.23-2.456-.878-7.247.104-9.922 2.34-6.367 6.18-12.435 9.266-18.47z" fill="#b9d3b2"/><path style="font-variation-settings:normal;-inkscape-stroke:none" d="M374.829 25.744c.414.769 7.317 14.344 14.84 22.885 6.404 7.27 7.279 13.098 7.279 13.098l2.868.022 1.339-2.007z" fill="#b9d3b2"/></svg>