<?xml version="1.0" encoding="UTF-8" standalone="no"?>
<svg
   width="1535.9916"
   height="352.8508"
   viewBox="0 0 406.39777 93.35872"
   version="1.1"
   id="a"
   sodipodi:docname="mountains.svg"
   inkscape:version="1.2.2 (b0a8486541, 2022-12-01)"
   xmlns:inkscape="http://www.inkscape.org/namespaces/inkscape"
   xmlns:sodipodi="http://sodipodi.sourceforge.net/DTD/sodipodi-0.dtd"
   xmlns="http://www.w3.org/2000/svg"
   xmlns:svg="http://www.w3.org/2000/svg">
  <sodipodi:namedview
     id="namedview34"
     pagecolor="#ffffff"
     bordercolor="#666666"
     borderopacity="1.0"
     inkscape:showpageshadow="2"
     inkscape:pageopacity="0.0"
     inkscape:pagecheckerboard="0"
     inkscape:deskcolor="#d1d1d1"
     showgrid="false"
     inkscape:zoom="0.43229167"
     inkscape:cx="894.07229"
     inkscape:cy="-15.036145"
     inkscape:window-width="1920"
     inkscape:window-height="1056"
     inkscape:window-x="1920"
     inkscape:window-y="0"
     inkscape:window-maximized="1"
     inkscape:current-layer="a" />
  <defs
     id="defs13">
    <linearGradient
       id="b"
       gradientUnits="userSpaceOnUse"
       x1="1200"
       y1="1700"
       x2="1200"
       y2="521.33301"
       gradientTransform="matrix(0.16933,0,0,0.16933,-0.00160895,-88.278325)">
      <stop
         offset="0"
         stop-color="#c3eef9"
         id="stop2" />
      <stop
         offset=".423"
         stop-color="#c1edf9"
         id="stop4" />
      <stop
         offset=".629"
         stop-color="#b9ebf8"
         id="stop6" />
      <stop
         offset=".787"
         stop-color="#ace7f7"
         id="stop8" />
      <stop
         offset=".914"
         stop-color="#9be2f5"
         id="stop10" />
    </linearGradient>
  </defs>
  <path
     d="m 406.39839,77.349435 v -37.76976 l -1.284,-0.314 c -9.248,-2.22 -18.394,-4.746 -27.788,-6.529 -4.636,-0.88 -9.121,-2.39 -13.975,-2.026 -4.246,0.318 -8.456,0.387 -12.637,-0.536 -7.054,-1.557 -13.968,-3.33 -20.019,-7.083 -2.79935,-1.72779 -5.89958,-2.91184 -9.138,-3.49 -3.57,-0.64 -6.707,-2.254 -10.154,-3.146 -1.87,-0.485 -3.739,-0.35 -5.488,0.246 -5.841,1.99 -11.578,1.458 -17.274,-0.389 -2.964,-0.96 -6.102,-1.263 -9.13,-1.954 -3.62,-0.827 -6.95,-2.507 -10.702,-2.98 -2.47,-0.312 -4.969,-0.465 -7.456,-0.68 -1.643,-0.141 -3.075,-0.7909999 -4.515,-1.4099999 -2.271,-0.974 -4.518,-1.975 -7.094,-2.243 -1.722,-0.179 -3.307,0.217 -4.835,0.78 -1.464,0.54 -2.923,0.623 -4.491,0.523 -1.57,-0.1 -3.182,-0.063 -4.739,0.135 -2.406,0.304 -4.794,0.236 -7.184,0.039 -2.438,-0.201 -4.894,-0.276 -7.221,0.377 -3.493,0.981 -6.535,0.186 -9.48,-1.377 -4.055,-2.15 -8.06,-4.377 -12.179,-6.43 -2.944,-1.46799999 -5.877,-1.26899999 -8.525,0.713 -0.331,0.248 -0.64,0.291 -1.107,0.178 -3.82864,-0.935194 -7.72234,-1.58035599 -11.648,-1.92999999 -5.128,-0.448 -8.525,1.95999999 -11.351,5.29599999 -2.677,3.16 -5.247,6.3969999 -8.637,9.0499999 -2.237,1.75 -4.791,2.5 -7.811,2.211 -1.926,-0.184 -3.875,-0.22 -5.815,-0.249 -3.208,-0.048 -6.144,-0.99 -9.105,-1.917 -2.853,-0.894 -5.785,-0.941 -8.75,-0.395 -1.044,0.193 -2.124,0.358 -3.183,0.342 -2.952,-0.043 -5.41,0.916 -7.42,2.7 -2.502,2.223 -5.042,4.334 -8.646,5.186 -1.362,0.322 -2.629,0.975 -3.546,1.912 -1.644,1.677 -3.878,2.17 -6.179999,2.612 -3.779,0.723 -7.444,2.011 -11.4,1.857 -1.806,-0.07 -3.598,-0.367 -5.403,-0.496 -2.987,-0.213 -5.731,0.416 -8.173,1.945 -2.89,1.808 -6.338,2.13 -9.67,2.759 -5.355,1.011 -10.438,2.817 -15.715,4.05 -2.237,0.524 -4.528,0.886 -6.81,1.251 -3.37,0.54 -6.512,1.62 -9.317,3.275 -4.267,2.517 -8.945,3.803 -14.043,4.13 -6.12,0.393 -11.73,2.265 -17.19099995,4.55 l -0.17000000261,0.07 v 27.06676 H 45.481391 l 89.594999,0.56 z"
     opacity="0.278"
     fill="url(#b)"
     id="path15"
     sodipodi:nodetypes="cccccccccccccccccccsccccccccccccccscccccccccccccccc"
     style="fill:url(#b)" />
  <g
     stroke-width="0.265"
     id="g25"
     transform="translate(-0.00160895,-26.457739)">
    <path
       d="m 194.49,214.42 c 1.338,-1.7 16.53,-9.987 16.53,-9.987 l 12.185,-10.216 22.73,-3.244 14.468,-6.096 c 0,0 15.23,-9.525 17.6,-10.287 2.37,-0.762 16.727,-11.186 16.727,-11.186 0,0 10.24,8.517 11.478,9.66 1.24,1.145 9.953,10.29 9.953,10.29 l 20.222,7.62 42.506,34.04 c 0,0 -41.148,12.063 -45.482,13.603 -4.334,1.543 -88.623,-2.31 -88.623,-2.31 l -48.413,-5.4 c 0,-0.003 -3.22,-14.785 -1.881,-16.486 z"
       fill="#c9e0c3"
       transform="translate(-62.177,-124.487)"
       id="path17" />
    <path
       d="m 280.781,194.778 c -0.456,-1.144 -2.255,-0.95 -3.091,-0.046 -0.837,0.901 -1.137,2.18 -1.859,3.18 -1.134,1.571 -3.114,2.23 -4.753,3.268 -4.323,2.741 -6.121,8.012 -8.3,12.646 a 55.332,55.332 0 0 1 -11.696,16.308 l -0.631,-6.49 c -2.813,0.683 -5.623,1.365 -8.436,2.045 -0.669,0.162 -1.337,0.326 -2.006,0.487 -7.26,1.761 -14.522,3.52 -21.782,5.282 a 210.125,210.125 0 0 1 7.747,-15.684 c 2.005,-3.67 4.156,-7.327 7.117,-10.28 2.96,-2.954 6.847,-5.178 11.024,-5.372 a 18.85,18.85 0 0 1 -1.07,8.18 48.917,48.917 0 0 0 16.593,-11.901 l -1.59,5.902 c 0.213,-0.798 3.854,-2.45 4.62,-2.972 a 107.866,107.866 0 0 0 13.592,-10.955 107.411,107.411 0 0 0 7.896,-8.335 c 1.619,-1.902 3.606,-5.782 6.516,-5.6 0.101,2.638 -3.205,7.007 -4.438,9.464 -1.815,3.622 -3.634,7.246 -5.453,10.873 z m 20.003,5.657 c -0.212,-0.434 -0.424,-0.868 -0.633,-1.305 -1.725,1.157 -0.397,4.236 1.657,4.525 2.053,0.288 3.934,-1.217 5.196,-2.866 a 102.055,102.055 0 0 1 -5.101,30.115 33.121,33.121 0 0 0 -2.59,-16.412 c -3.242,5.006 -6.48,10.012 -9.721,15.02 2.564,-13.25 5.125,-26.503 7.689,-39.753 0.759,-3.926 0.854,-9.628 2.754,-13.084 1.659,1.963 1.413,5.607 1.36,8.078 -0.106,5.226 -0.405,10.456 -0.611,15.682 z m -12.801,3.693 a 24.384,24.384 0 0 0 -8.146,8.181 11.62,11.62 0 0 0 1.875,-5.588 77.366,77.366 0 0 0 -17.243,25.104 c 0.36,-0.841 8.721,-1.06 10.047,-1.788 2.056,-1.128 2.447,-3.112 3.42,-5.189 3.258,-6.945 6.697,-13.814 10.047,-20.72 z m 42.918,-10.967 c -0.38,2.326 -0.764,4.655 -1.145,6.98 -6.337,-4.834 -12.677,-9.668 -19.013,-14.502 5.947,7.85 11.898,15.7 17.846,23.554 0.72,-1.027 1.437,-2.054 2.156,-3.083 l 8.152,16.928 c 4.022,8.353 13.298,2.62 8.853,-5.3 -4.797,-8.55 -11.287,-16.499 -16.849,-24.577 z"
       fill="#b9d3b2"
       transform="translate(-62.177,-124.487)"
       id="path19" />
    <path
       d="m 102.309,227.666 5.929,-5.234 c 0,0 8.594,-1.54 9.281,-0.74 0.688,0.799 7.909,-3.421 7.909,-3.421 l 9.266,-8.824 12.906,-6.9 19.37,-10.907 6.588,9.607 h 19.275 l 23.011,19.915 -41.259,20.027 c 0,0 -73.221,1.95 -74.742,3.064 -1.52,1.114 2.466,-16.587 2.466,-16.587 z"
       fill="#c9e0c3"
       transform="translate(-62.177,-124.487)"
       id="path21" />
    <path
       d="m 168.743,222.78 c -0.066,-1.762 -0.135,-3.524 -0.2,-5.286 -0.014,-0.318 -0.033,-0.659 -0.223,-0.913 -0.55,-0.735 -1.73,-0.045 -2.194,0.749 -0.463,0.794 -0.957,1.833 -1.875,1.815 -0.088,-1.556 -0.178,-3.112 -0.265,-4.67 -2.826,5.802 -5.649,11.605 -8.475,17.404 4.871,-1.296 12.124,-1.841 16.27,-4.876 2.905,-2.127 3.328,-6.353 3.447,-9.681 -2.53,1.127 -4.791,3.276 -6.485,5.458 z m -11.525,-19.329 c -4.575,4.36 -9.15,8.723 -13.727,13.084 0.736,-0.24 0.318,-1.522 -0.45,-1.609 -0.767,-0.087 -1.429,0.51 -1.96,1.07 a 80.8,80.8 0 0 0 -11.142,14.755 c -0.706,1.199 -1.352,2.818 -0.442,3.868 1.786,2.064 9.16,-0.402 11.266,-1.484 2.366,-1.215 3.419,-3.247 4.784,-5.421 2.347,-3.742 4.813,-7.353 6.776,-11.325 a 71.794,71.794 0 0 0 2.87,-6.635 c 0.522,-1.4 1.011,-5.34 2.025,-6.303 z"
       fill="#b9d3b2"
       transform="translate(-62.177,-124.487)"
       id="path23" />
  </g>
  <path
     d="M 406.39327,44.277459 390.37295,27.548065 c 0,0 -4.28619,-3.047961 -6.32611,-5.714928 -2.03991,-2.666966 -12.05955,-8.381894 -14.66831,-10.667865 -2.60876,-2.2859704 -18.5841,4.571942 -18.5841,4.571942 0,0 -9.59896,8.381895 -11.67062,9.52488 -2.07167,1.142986 -6.78648,9.916459 -9.57251,10.101665 -2.78603,0.185206 -15.82717,4.950291 -17.68982,5.042894 -1.86,0.09525 -14.43548,-2.360053 -15.95946,-0.560909 -1.52398,1.799144 -13.14169,14.639211 -14.81913,15.641969 -0.48154,0.288393 -1.67215,1.248818 -3.12204,2.471178 -4.96088,-3.447478 -10.144,-6.760019 -12.58872,-5.426536 -1.70919,0.941905 -7.97709,-3.516268 -10.27364,-3.365458 -2.2992,0.153457 -10.6758,15.779551 -12.21037,15.85628 -1.53456,0.07673 -11.9061,-1.947309 -13.16285,-0.463015 -1.25676,1.484293 -10.83985,12.075431 -12.2236,12.90092 -1.38375,0.82549 -9.84767,8.389834 -9.84767,8.389834 l 88.36972,3.706773 c 4.46082,-3.833773 8.66764,-8.101446 14.00158,-10.720786 4.66983,-2.293913 12.15083,7.988993 12.00002,1.36655 -0.0132,-0.58472 6.26182,5.613863 6.18244,5.105873 l 40.3003,-2.317203 37.88521,2.102363 z"
     fill="#c9e0c3"
     id="path27"
     style="stroke-width:0.26458" />
  <path
     d="m 248.50595,77.62962 c 4.40049,-7.220917 8.80284,-14.439983 13.20307,-21.6609 -0.46143,1.614996 -0.91651,3.39218 -0.23071,4.92648 0.68605,1.53377 3.0723,2.302904 4.05336,0.939259 0.62362,-0.866765 0.71913,-2.427787 1.78539,-2.440222 0.66727,-0.0082 1.10171,0.70246 1.28056,1.346712 0.1786,0.644517 0.28681,1.376346 0.81253,1.787767 0.52599,0.411687 1.57161,-0.01058 1.34486,-0.638167 a 89.412165,89.412165 0 0 1 -5.95093,21.631794 c -4.08247,-2.25739 -9.07695,-2.80402 -13.55232,-1.48191 m 58.4944,-38.387912 c 0,2.267715 1.00012,4.516116 2.68258,6.036922 1.07869,-4.08538 3.68269,-7.74849 7.18467,-10.11066 -1.21257,0.719128 -0.99641,2.766977 0.18653,3.535318 1.1832,0.76834 2.82413,0.436292 3.95203,-0.408776 1.13002,-0.845069 1.86291,-2.102618 2.56643,-3.327094 -0.0863,2.216651 -0.17092,4.431715 -0.25744,6.648366 1.02287,-1.055409 0.51117,0.587897 2.59236,-2.636804 -4.61428,8.232142 -5.57523,9.428308 -10.18951,17.66045 5.13682,-8.210446 11.88732,-15.404906 19.75593,-21.052895 -0.14367,1.90233 -0.28893,3.804661 -0.43259,5.706991 a 13.563958,13.563958 0 0 1 5.42389,-3.26042 c 0.23018,1.304909 0.45984,2.607701 0.69187,3.91261 a 28.025107,28.025107 0 0 1 8.34406,-4.977809 c -0.0138,1.52504 -0.0275,3.050079 -0.0392,4.573001 a 87.804577,87.804577 0 0 1 6.73461,-23.22642 72.508149,72.508149 0 0 1 2.19708,22.888551 c -0.23786,3.714175 -0.88449,7.675995 -3.44907,10.372066 -3.25036,3.419432 -8.47185,3.759681 -13.16285,4.246773 -11.30948,1.177381 -22.29087,4.525906 -32.40153,9.706118 -3.03632,1.556259 -8.65864,5.508291 -11.75,2.106585 -2.23041,-2.45636 -0.8784,-7.247639 0.10425,-9.922279 2.33889,-6.367117 6.18059,-12.435524 9.26585,-18.470329 z"
     fill="#b9d3b2"
     id="path29"
     style="stroke-width:0.26458" />
  <path
     style="font-variation-settings:normal;stroke-width:0.26458;-inkscape-stroke:none"
     d="m 374.82888,25.743894 c 0.41406,0.769135 7.31696,14.344205 14.84029,22.885377 6.40389,7.269864 7.27859,13.097503 7.27859,13.097503 l 2.86858,0.02249 1.33825,-2.00684 z"
     fill="#b9d3b2"
     id="path31" />
</svg>
