<svg width="694.114" height="401.492" xmlns="http://www.w3.org/2000/svg"><defs><filter id="u" x="0" y="0" width="1" height="1" color-interpolation-filters="sRGB"><feColorMatrix values="1 0 0 -0.688449 -0 0 1 0 -0.688449 -0 0 0 1 -0.688449 -0 0 0 0 1 0"/></filter><filter id="t" x="0" y="0" width="1" height="1" color-interpolation-filters="sRGB"><feColorMatrix values="1 0 0 -0.688449 -0 0 1 0 -0.688449 -0 0 0 1 -0.688449 -0 0 0 0 1 0"/></filter><filter id="s" x="0" y="0" width="1" height="1" color-interpolation-filters="sRGB"><feColorMatrix values="1 0 0 -0.688449 -0 0 1 0 -0.688449 -0 0 0 1 -0.688449 -0 0 0 0 1 0"/></filter><filter id="r" x="0" y="0" width="1" height="1" color-interpolation-filters="sRGB"><feColorMatrix values="1 0 0 -0.688449 -0 0 1 0 -0.688449 -0 0 0 1 -0.688449 -0 0 0 0 1 0"/></filter><filter id="q" x="0" y="0" width="1" height="1" color-interpolation-filters="sRGB"><feColorMatrix values="1 0 0 -0.688449 -0 0 1 0 -0.688449 -0 0 0 1 -0.688449 -0 0 0 0 1 0"/></filter><filter id="p" x="0" y="0" width="1" height="1" color-interpolation-filters="sRGB"><feColorMatrix values="1 0 0 -0.688449 -0 0 1 0 -0.688449 -0 0 0 1 -0.688449 -0 0 0 0 1 0"/></filter><filter id="o" x="0" y="0" width="1" height="1" color-interpolation-filters="sRGB"><feColorMatrix values="1 0 0 -0.688449 -0 0 1 0 -0.688449 -0 0 0 1 -0.688449 -0 0 0 0 1 0"/></filter><filter id="n" x="0" y="0" width="1" height="1" color-interpolation-filters="sRGB"><feColorMatrix values="1 0 0 -0.688449 -0 0 1 0 -0.688449 -0 0 0 1 -0.688449 -0 0 0 0 1 0"/></filter><filter id="m" x="0" y="0" width="1" height="1" color-interpolation-filters="sRGB"><feColorMatrix values="1 0 0 -0.688449 -0 0 1 0 -0.688449 -0 0 0 1 -0.688449 -0 0 0 0 1 0"/></filter><filter id="l" x="0" y="0" width="1" height="1" color-interpolation-filters="sRGB"><feColorMatrix values="1 0 0 -0.688449 -0 0 1 0 -0.688449 -0 0 0 1 -0.688449 -0 0 0 0 1 0"/></filter><filter id="k" x="0" y="0" width="1" height="1" color-interpolation-filters="sRGB"><feColorMatrix values="1 0 0 -0.688449 -0 0 1 0 -0.688449 -0 0 0 1 -0.688449 -0 0 0 0 1 0"/></filter><filter id="j" x="0" y="0" width="1" height="1" color-interpolation-filters="sRGB"><feColorMatrix values="1 0 0 -0.688449 -0 0 1 0 -0.688449 -0 0 0 1 -0.688449 -0 0 0 0 1 0"/></filter><filter id="i" x="0" y="0" width="1" height="1" color-interpolation-filters="sRGB"><feColorMatrix values="1 0 0 -0.688449 -0 0 1 0 -0.688449 -0 0 0 1 -0.688449 -0 0 0 0 1 0"/></filter><filter id="g" x="0" y="0" width="1" height="1" color-interpolation-filters="sRGB"><feColorMatrix values="1 0 0 -0.688449 -0 0 1 0 -0.688449 -0 0 0 1 -0.688449 -0 0 0 0 1 0"/></filter><filter id="f" x="0" y="0" width="1" height="1" color-interpolation-filters="sRGB"><feColorMatrix values="1 0 0 -0.688449 -0 0 1 0 -0.688449 -0 0 0 1 -0.688449 -0 0 0 0 1 0"/></filter><filter id="e" x="0" y="0" width="1" height="1" color-interpolation-filters="sRGB"><feColorMatrix values="1 0 0 -0.688449 -0 0 1 0 -0.688449 -0 0 0 1 -0.688449 -0 0 0 0 1 0"/></filter><filter id="d" x="0" y="0" width="1" height="1" color-interpolation-filters="sRGB"><feColorMatrix values="1 0 0 -0.688449 -0 0 1 0 -0.688449 -0 0 0 1 -0.688449 -0 0 0 0 1 0"/></filter><filter id="c" x="0" y="0" width="1" height="1" color-interpolation-filters="sRGB"><feColorMatrix values="1 0 0 -0.688449 -0 0 1 0 -0.688449 -0 0 0 1 -0.688449 -0 0 0 0 1 0"/></filter><filter id="b" x="0" y="0" width="1" height="1" color-interpolation-filters="sRGB"><feColorMatrix values="1 0 0 -0.688449 -0 0 1 0 -0.688449 -0 0 0 1 -0.688449 -0 0 0 0 1 0"/></filter><filter id="a" x="0" y="0" width="1" height="1" color-interpolation-filters="sRGB"><feColorMatrix values="1 0 0 -0.688449 -0 0 1 0 -0.688449 -0 0 0 1 -0.688449 -0 0 0 0 1 0"/></filter><filter id="h" x="0" y="0" width="1" height="1" color-interpolation-filters="sRGB"><feColorMatrix values="1 0 0 -0.688449 -0 0 1 0 -0.688449 -0 0 0 1 -0.688449 -0 0 0 0 1 0"/></filter></defs><path d="M409.718 126.75l1.882 17.055c10.25 92.999 38.794 180.439 84.118 257.687H157.102c45.322-77.248 73.866-164.688 84.118-257.687l1.88-17.056h166.618" fill="#9dd2d0" fill-rule="evenodd" filter="url(#a)"/><path d="M304.432 70.397l2.265 20.555c12.355 112.072 46.755 217.448 101.373 310.54H0C54.618 308.4 89.017 203.024 101.37 90.952l2.266-20.555h200.796" fill="#77afb0" fill-rule="evenodd" filter="url(#b)"/><path d="M102.73 401.492H0C54.618 308.4 89.017 203.024 101.37 90.952l2.266-20.555h23.356v19.751a2010.01 2010.01 0 01-24.261 311.344" fill="#699ea1" fill-rule="evenodd" filter="url(#c)"/><path d="M384.776 316.864h262.41V253.5h-262.41v63.364" fill="#f78d9f" fill-rule="evenodd" filter="url(#d)"/><path d="M188.138 401.492H408.07V198.004H188.138v203.488" fill="#64619a" fill-rule="evenodd" filter="url(#e)"/><path d="M338.042 223.343h34.398v152.81h-34.398zm-114.276 0h34.4v152.81h-34.4zm57.14 0h34.398v152.81h-34.399v-152.81" fill="#b2b1d2" fill-rule="evenodd"/><path d="M346.748 401.49h347.366V291.182H346.748v110.306" fill="#f1485f" fill-rule="evenodd" filter="url(#f)"/><path d="M361.137 325.757h318.59v-17.79h-318.59v17.79m0 11.684h318.59v17.79h-318.59v-17.79m0 47.263h318.59v-17.79h-318.59v17.79" fill="#ffd000" fill-rule="evenodd"/><path d="M346.75 291.183l-47.453 47.45v62.859h47.452v-110.31" fill="#3e3d5e" fill-rule="evenodd" filter="url(#g)"/><path d="M315.304 322.628l-16.007 16.005v37.52h16.007zm31.445-31.445l-8.707 8.706v76.264h8.707v-84.97" fill="#232335" fill-rule="evenodd" filter="url(#h)"/><path d="M214.861 348.757h48.988c4.984 0 9.559 1.919 12.993 5.086a19.175 19.175 0 016.131 12.568l.025.504v34.577H270.05v-34.319a6.206 6.206 0 00-1.958-3.821 6.241 6.241 0 00-4.243-1.647h-48.988v-12.948" fill="#fff" fill-rule="evenodd" filter="url(#i)"/><path d="M189.34 263.436c23.93 0 43.506 19.576 43.506 43.505v94.551h-87.013v-94.55c0-23.93 19.577-43.506 43.507-43.506" fill="#fbc907" fill-rule="evenodd" filter="url(#j)"/><path d="M451.445 0h34.941l10.45 253.5h-55.84L451.446 0" fill="#cc2c23" fill-rule="evenodd" filter="url(#k)"/><path d="M451.445 0h12.628l-2.872 253.5h-20.205L451.446 0" fill="#b22822" fill-rule="evenodd" filter="url(#l)"/><path d="M489.812 78.276l1.37 32.887h-44.53l1.368-32.887zm-2.026-48.644l1.37 32.887h-40.479l1.367-32.887h37.742" fill="#fff" fill-rule="evenodd" filter="url(#m)"/><path d="M463.186 78.276l-.373 32.887h-16.161l1.368-32.887zm.178-15.757h-14.687l1.367-32.887h13.693l-.373 32.887" fill="#fde8e4" fill-rule="evenodd" filter="url(#n)"/><path d="M545.574 0h34.943l10.45 253.5h-55.84L545.573 0" fill="#cc2c23" fill-rule="evenodd" filter="url(#o)"/><path d="M545.574 0h12.627l-2.868 253.5h-20.207L545.574 0" fill="#b22822" fill-rule="evenodd" filter="url(#p)"/><path d="M583.941 78.276l1.37 32.887h-44.53l1.37-32.887zm-2.023-48.644l1.367 32.887h-40.479l1.37-32.887h37.742" fill="#fff" fill-rule="evenodd" filter="url(#q)"/><path d="M557.314 78.276l-.37 32.887H540.78l1.368-32.887zm.178-15.757h-14.686l1.37-32.887h13.69l-.374 32.887" fill="#fde8e4" fill-rule="evenodd" filter="url(#r)"/><path d="M171.093 401.492h-25.26v-94.55c0-23.434 18.772-42.69 42.024-43.478-9.35 1.817-16.764 20.641-16.764 43.399v94.629" fill="#f8a10e" fill-rule="evenodd" filter="url(#s)"/><path d="M126.992 401.49h124.696v-16.786H126.992v16.785" fill="#fae24d" fill-rule="evenodd" filter="url(#t)"/><path d="M126.99 401.49h35.022v-16.786H126.99v16.785" fill="#f6db3e" fill-rule="evenodd" filter="url(#u)"/></svg>