<?xml version="1.0" encoding="UTF-8" standalone="no"?>
<svg
   width="221.452"
   height="153.737"
   version="1.1"
   id="svg4810"
   xmlns="http://www.w3.org/2000/svg"
   xmlns:svg="http://www.w3.org/2000/svg">
  <defs
     id="defs4804">
    <filter
       id="a"
       x="-0.026867639"
       y="-0.037169199"
       width="1.0663003"
       height="1.1142007"
       color-interpolation-filters="sRGB">
      <feFlood
         flood-opacity=".694"
         flood-color="#000"
         result="flood"
         id="feFlood4793" />
      <feComposite
         in="flood"
         in2="SourceGraphic"
         operator="in"
         result="composite1"
         id="feComposite4795" />
      <feGaussianBlur
         in="composite1"
         stdDeviation="1"
         result="blur"
         id="feGaussianBlur4797" />
      <feOffset
         dx="2.3"
         dy="2.3"
         result="offset"
         id="feOffset4799" />
      <feComposite
         in="SourceGraphic"
         in2="offset"
         result="composite2"
         id="feComposite4801" />
    </filter>
  </defs>
  <g
     transform="matrix(.87688 0 0 .8744 -.187 -65.117)"
     fill="#d3b2b4"
     fill-opacity=".607"
     stroke="red"
     stroke-width="1.142"
     stroke-opacity=".785"
     filter="url(#a)"
     id="g4808"
     style="fill:#746162;fill-opacity:0.60699999">
    <path
       d="M30.389 90.778L44.04 81.19 54.118 91.84l19.822-9.938 17.345 9.938 14.69-8.169 15.751 8.169 18.052-9.408 20 9.408 16.99-11.504 16.46 11.504 11.15-9.734 10.926 9.734 20.136-4.204-10.458 14.496 15.728 3.22-12.334 15.29 15.043 8.172-12.553 13.167 11.908 9.453-13.495 15.61 11.028 21.812-17.534 8.6 1.15 24.693-18.328-5.858-9.713 6.665-16.99-6.956-10.796 8.726-13.451-7.841-15.752 6.78-15.928-8.019-14.336 9.434-14.335-9.434H81.567l-34.078 22.489 8.642-21.25-33.063 2.707-2.267-15.096-8.046-.637 6.644-16.144-12.115-13.273L19.4 160.99 6.576 149.133 19.4 134.266 7.46 119.576l13.668-9.374-10.925-26.179s18.079 6.622 20.185 6.755z"
       stroke-width="5.71"
       paint-order="stroke fill markers"
       id="path4806"
       style="fill:#746162;fill-opacity:0.60699999" />
  </g>
</svg>
