<svg width="77.833" height="60" xmlns="http://www.w3.org/2000/svg"><path fill="#c8d2da" d="M56.571 50.95l21.262-15.412V60c-2.207-6.52-21.262-9.05-21.262-9.05z"/><path fill="#e4eef7" d="M61.06 49.945c8.867-5.086 10.488-16.005 10.488-16.005s1.375-5.842-5.822-16.222c-3.959-5.715-15.928-10.014-17.535-5.696-3.344 8.982-.035 11.98-1.422 14.174-1.705 2.696-2.877 3.62-3.85 4.164-.709.397-1.135.99-1.082 2.117.078 1.607 2.846 1.863 2.932 2.326.221 1.16-2.156 1.93-3.466 2.862-1.311.929 1.076 1.865.615 4.834-.465 2.967-.713 4.09-.713 4.09 1.08.85 4.931.57 4.667 2.376-.607 4.224 4.566 7.072 15.188.98z"/><path fill="#91999f" d="M45.914 41.064c-1.235-.424-2.415-.872-3.32-1.374-.842-.497-1.502-1.088-.787-2.18-.83.122-1.665.593-1.991 1.23-.298.65-.082 1.366.365 1.92a9.819 4.94 0 001.616 1.358c-.671.385-1.292.901-1.56 1.473-.326.6-.302 1.19-.17 1.714.182.53.438 1.017.892 1.48.725-.963 1.2-1.893 1.93-2.4a5.522 2.778 0 011.234-.613 19.731 9.927 0 011.7-.562l3.184-.977z"/><path d="M64.085 20.87s6.32 21.518 0 39.13h4.654s6.801-19.501-.764-39.667zM51.98 19.784c3.163 0 6.582 2.623 6.582 2.623-2.878-1.413-5.188-2.088-6.918-1.189-2.403 1.249-3.733 4.11-3.733 4.11-.159-.258-.42-.832.504-2.48.595-1.063 2.594-3.065 3.564-3.064z" style="font-variation-settings:normal;-inkscape-stroke:none" fill="#91999f"/><path d="M50.328 23.956c1.106-.652.328.16.328.16-.255.274-.745.622-1.159.96-.573.467-.93.644-.93.644-.057-.06.361-.551.734-.91.237-.227.767-.8 1.027-.854zm.84 5.784c1.226.38.283-.23.283-.23-.312-.209-.87-.435-1.349-.668-.666-.324-1.053-.414-1.053-.414-.042.071.478.453.923.717.283.167.93.603 1.196.596z" style="font-variation-settings:normal;-inkscape-stroke:none" fill="#c8d2da"/><path fill="#adb5bc" d="M67.923 20.775s6.32 21.612 0 39.226h4.652s6.801-19.595-.764-39.762z"/><path fill="#91999f" d="M71.653 20.87s6.32 21.518 0 39.13h6.18V35.539z"/><path fill="#c8d2da" d="M60.329 2.406s-3.52-1.077-5.176-.123c-11.221 6.467-5.846 7.542-1.887 5.885 2.838-1.188 7.063-5.762 7.063-5.762z"/><path fill="#adb5bc" d="M52.222 7.47s-3.645-1.303-5.174-.126c-7.379 5.682-1.207 16.732-1.207 16.732s-1.42-10.794 2.541-12.451c2.838-1.19 3.84-4.155 3.84-4.155z"/><path fill="#c8d2da" d="M77.833 2.528c-11.902-6.091-19.018.74-19.018.74l19.018 22.158z"/><path fill="#c8d2da" d="M58.958 15.63c-7.094-6.87-10.576-4.005-10.576-4.005C58.815-7.101 77.833 18.9 77.833 35.538c0 0-12.514-13.746-18.875-19.908z"/><path fill="#c8d2da" d="M62.435 25.742C54.206 16.672 50.609 8.43 50.609 8.43c8.749 11.902 24.13 18.664 27.224 47.769 0 0-7.75-22.028-15.398-30.458z"/><path fill="#adb5bc" d="M66.089 11.605C58.624 3.899 52.8 6.503 52.8 6.503c8.361-11.208 22.553-4.84 25.033 14.609v14.426s-5.561-17.554-11.744-23.933z"/><path d="M14.85 21.703c-1.9 2.816 2.108 6.865 4.459 3.605 2.624-3.554-1.828-9.38-5.656-5.817-6.851 7.283 4.274 16.651 12.236 18.674-6.187.39-13.649-3.09-16.02-9.141-1.638-4.188-.806-10.95 4.004-12.754 5.329-2.08 9.718 4.443 7.144 8.996-3.262 5.775-9.996.45-6.166-3.563z" fill="#42ade2"/><path d="M39.21 41.412c-5.276.986-11.31-1.741-13.608-6.709-1.86-3.984-1.138-11.421 4.139-12.465 4.056-.831 6.792 3.443 6.17 7.022-1.27 7.405-9.978 2.33-6.105-1.932-1.898 3.39 3.031 6.468 4.62 3.149 1.46-3.045-1.317-8.112-5.137-6.141-4.275 2.204-3.152 8.889-.358 11.708 2.715 2.896 6.53 4.375 10.278 5.368z" fill="#42ade2"/><path d="M39.21 42.492c-4.847.49-10.732.822-14.816 3.812-3.144 2.3-4.267 7.763-1.439 10.778 2.8 3.003 6.764.038 6.46-3.515-.363-4.228-6.438-3.009-5.186.98-2.93-5.337 7.612-7.433 6.218.868-.874 5.206-8.263 6.184-10.316 1.312-5.18-12.307 10.54-16.535 19.078-14.235z" fill="#42ade2"/><path d="M29.85 41.89c-6.21.28-21.826.433-19.974 9.407.776 3.76 5.724 3.737 5.429-.435-.174-3.29-4.57-2.578-3.832.84-3.242-6.395 8.935-5.558 5.25 2.114-2.458 5.124-9.12 2.039-9.546-3.098C6.181 38.782 22.64 40.04 29.85 41.89zM4.388 27.731c-1.08 1.601 1.198 3.904 2.535 2.05 1.491-2.02-1.04-5.333-3.216-3.307-3.896 4.14 2.43 9.467 6.957 10.617-3.518.222-7.76-1.756-9.11-5.197-.93-2.381-.457-6.226 2.277-7.252 3.03-1.183 5.526 2.527 4.063 5.115-1.855 3.284-5.684.257-3.506-2.026z" fill="#42ade2"/><path d="M12.916 39.21c-3.53.159-12.41.245-11.357 5.348.442 2.138 3.255 2.125 3.087-.247-.099-1.871-2.598-1.466-2.179.477-1.843-3.636 5.08-3.16 2.986 1.203C4.055 48.904.266 47.149.025 44.229c-.567-6.787 8.791-6.072 12.891-5.02z" fill="#42ade2"/><path style="font-variation-settings:normal;-inkscape-stroke:none" d="M48.415 26.717c.129-.127.254-.258.383-.384a5.945 5.945 0 01.937-.745 5.328 5.328 0 01.905-.465 5.13 5.13 0 011.184-.32c.1-.014.2-.026.3-.035.086-.007.173-.008.26-.01v.002h.056c.013 0 .028.004.041-.003h.199c.013.007.028.002.041.003h.06v-.001l.056.001c.1.001.2.007.3.018a5.08 5.08 0 011.277.303 5.336 5.336 0 01.852.407 5.597 5.597 0 01.889.647c.055.05.11.099.164.15l.41.411c.015.014.03.028.035.048v.004c-.006.016-.017.027-.029.039l-.13.132c-.095.097-.19.194-.29.288a6.57 6.57 0 01-.488.419 5.728 5.728 0 01-1.013.615 5.452 5.452 0 01-.733.281 5.144 5.144 0 01-1.223.212c-.082.003-.163.002-.245.003-.083.001-.166-.001-.25-.003-.065-.002-.13-.003-.195-.008a5.765 5.765 0 01-.577-.078 5.395 5.395 0 01-2.173-.962 5.92 5.92 0 01-.584-.492 20.94 20.94 0 01-.42-.423c-.02-.02-.02-.034 0-.054zm4.64 1.468a4.58 4.58 0 00.483-.116c.477-.141 1.31-.353 1.724-.628a5.28 5.28 0 00.671-.53l.157-.151c.01-.01.012-.017 0-.028a5.26 5.26 0 00-1.343-.983c-.399-.203-1.213-.35-1.652-.436l-.035-.006c-.004-.002-.009-.005-.011-.001a1.686 1.686 0 01.791 1.15 1.655 1.655 0 01-.346 1.342 1.653 1.653 0 01-.449.388c.003.005.007 0 .01 0zm-1.505-.884c.323 0 .56-.266.556-.566a.556.556 0 10-.556.566zm-2.476-.541c.382.382.791.657 1.287.953.19.114.325.199.536.295.16.079.403.172.44.179-.522-.34-.813-.814-.814-1.44 0-.628.292-1.102.813-1.443-.046.01-.442.182-.489.192-.39.16-.847.46-1.199.735-.2.157-.394.321-.574.501-.012.012-.01.017 0 .028z" fill="#adb5bc"/><path d="M52.68 24.757h.041a.035.035 0 000 .002c-.014-.001-.027.002-.041-.002z" style="font-variation-settings:normal;-inkscape-stroke:none" fill="#adb5bc"/><path d="M52.721 24.759v.001c-.013 0-.028.004-.041-.003.014.004.027.001.041.002zm-.281 0v-.002h.041c-.014.004-.027 0-.041.002z" style="font-variation-settings:normal;-inkscape-stroke:none" fill="#adb5bc"/><path d="M52.44 24.76v-.001c.014-.001.027.002.041-.002-.013.007-.028.002-.041.004zm.311-.001v-.002h.03v.002h-.002zm0 .001v-.001h.03v.001zm-.002-.001h-.026l-.002-.002h.03z" style="font-variation-settings:normal;-inkscape-stroke:none" fill="#adb5bc"/><path d="M52.723 24.759h.026l.002.001h-.03zm0 0h-.002v-.002c.002 0 .002.001.002.002z" style="font-variation-settings:normal;-inkscape-stroke:none" fill="#adb5bc"/><path d="M52.722 24.759h.001l-.002.001v-.001zm.029 0h-.002l.002-.002zm-.002 0h.002v.001zm-.311 0h-.028v-.002h.03c-.002 0-.002.001-.002.002zm-.027 0h.027l.002.002h-.03v-.002z" style="font-variation-settings:normal;-inkscape-stroke:none" fill="#adb5bc"/><path d="M52.44 24.759h-.002l.002-.002zm-.002 0h.002v.002zm-.03 0h-.025v-.002h.027c-.002 0-.002.001-.002.002zm0 0l.002.001h-.027v-.001h.003zM52.408 24.759l.002-.002v.002zm0 0h.002v.001zm1.037.553c-.003-.001-.009-.003-.007-.006.002-.004.008 0 .011.001-.004 0-.005.001-.004.005z" style="font-variation-settings:normal;-inkscape-stroke:none" fill="#adb5bc"/><path d="M53.445 25.312c0-.004 0-.006.004-.005zm-.004 2.869c0 .003 0 .005.004.004-.003.002-.007.006-.01 0-.001-.001.003-.003.006-.004z" style="font-variation-settings:normal;-inkscape-stroke:none" fill="#adb5bc"/><path d="M53.441 28.18l.004.005c-.004.001-.005 0-.004-.004z" style="font-variation-settings:normal;-inkscape-stroke:none" fill="#adb5bc"/><path fill="#c8d2da" d="M57.98 29.554c-2.27 1.274-3.987 2.905-5.336 4.668a14.235 14.235 0 00-2.727 5.695c-.345 2.014-.228 4.124.757 6.083.92 1.961 2.68 3.728 5.023 4.92-.93-1.886-3.697-5.316-3.935-7.07a15.597 15.597 0 01.21-5.244c.682-3.513 4.392-5.278 6.007-9.052z"/><path d="M55.978 26.84c-1.193-.646-2.338-1.273-3.34-1.305-1.969-.062-3.369 1.06-3.369 1.06" fill="none" stroke="#adb5bc" stroke-width=".8" stroke-linecap="round"/></svg>