<svg width="54.098" height="60.001" xmlns="http://www.w3.org/2000/svg"><path fill="#c8d2da" d="M21.262 50.95L0 35.539V60c2.207-6.52 21.262-9.05 21.262-9.05z"/><path fill="#e4eef7" d="M16.773 49.945C7.906 44.859 6.285 33.94 6.285 33.94s-1.375-5.842 5.822-16.222c3.959-5.715 15.928-10.014 17.535-5.696 3.344 8.982.035 11.98 1.422 14.174 1.705 2.696 2.877 3.62 3.85 4.164.709.397 1.135.99 1.082 2.117-.078 1.607-2.846 1.863-2.932 2.326-.221 1.16.641 1.693 1.951 2.625 1.311.929-1.076 1.865-.615 4.834.465 2.967.713 4.09.713 4.09-1.08.85-3.416.808-3.152 2.613.607 4.224-4.566 7.072-15.188.98z"/><path fill="#91999f" d="M32.619 40.732c.621-.424 1.215-.872 1.67-1.374.424-.497.756-1.088.396-2.18.418.122.838.593 1.002 1.23.15.649.041 1.366-.184 1.92a4.94 4.94 0 01-.813 1.358c.338.385.65.9.785 1.473.164.6.152 1.19.086 1.714-.092.53-.221 1.017-.449 1.479-.365-.962-.604-1.892-.971-2.4a2.778 2.778 0 00-.621-.612 9.927 9.927 0 00-.855-.562l-1.602-.977z"/><path fill="#adb5bc" d="M29.244 28.024c-4.119 3.059-7.482-.244-7.482-.244 3.584.926 7.482.244 7.482.244z"/><path fill="#c8d2da" d="M28.549 37.365c.486.525.854 1.197 1.143 1.923.297.723.486 1.52.584 2.346.074.83.049 1.699-.162 2.506-.197.808-.574 1.536-1.076 2.027.199-.777.342-1.496.393-2.22a12.27 12.27 0 00-.045-2.16c-.146-1.446-.491-2.867-.837-4.422z"/><path fill="#91999f" d="M25.646 19.34c-3.164 0-6.375 3.067-6.375 3.067 6.875-3.373 11.707 0 11.707 0-.617-.84-2.855-3.071-5.332-3.067zm-11.898 1.53s-6.32 21.518 0 39.13H9.094s-6.801-19.5.764-39.666z"/><path fill="#adb5bc" d="M9.91 20.775S3.59 42.387 9.91 60H5.258s-6.801-19.595.764-39.762z"/><path fill="#91999f" d="M6.18 20.87S-.14 42.388 6.18 60H0V35.539z"/><path fill="#c8d2da" d="M17.504 2.406s3.52-1.077 5.176-.123c11.221 6.467 5.846 7.542 1.887 5.885-2.838-1.188-7.063-5.762-7.063-5.762z"/><path fill="#adb5bc" d="M25.611 7.47s3.645-1.303 5.174-.126c7.379 5.682 1.207 16.732 1.207 16.732s1.42-10.794-2.541-12.451c-2.838-1.19-3.84-4.155-3.84-4.155z"/><path fill="#c8d2da" d="M0 2.528c11.902-6.091 19.018.74 19.018.74L0 25.427z"/><path fill="#c8d2da" d="M18.875 15.63c7.094-6.87 10.576-4.005 10.576-4.005C19.018-7.101 0 18.9 0 35.538c0 0 12.514-13.746 18.875-19.908z"/><path fill="#c8d2da" d="M15.398 25.742C23.627 16.672 27.224 8.43 27.224 8.43 18.475 20.333 3.094 27.095 0 56.2c0 0 7.75-22.028 15.398-30.458z"/><path fill="#adb5bc" d="M11.744 11.605c7.465-7.706 13.289-5.102 13.289-5.102C16.672-4.705 2.48 1.663 0 21.112v14.426s5.561-17.554 11.744-23.933z"/><path d="M36 41.314c4.75.887 10.182-1.568 12.251-6.04 1.674-3.587 1.024-10.283-3.727-11.223-3.651-.748-6.114 3.1-5.554 6.322 1.143 6.667 8.983 2.097 5.496-1.74 1.709 3.053-2.729 5.824-4.16 2.836-1.313-2.742 1.186-7.303 4.626-5.53 3.848 1.985 2.837 8.004.321 10.54-2.444 2.609-5.877 3.94-9.253 4.835z" fill="#42ade2"/><path d="M36 42.286c4.363.44 9.662.74 13.339 3.432 2.83 2.07 3.841 6.989 1.295 9.704-2.521 2.703-6.09.034-5.815-3.165.326-3.807 5.795-2.71 4.668.882 2.637-4.805-6.853-6.691-5.598.782.787 4.687 7.439 5.567 9.287 1.18C57.84 44.022 43.687 40.216 36 42.287z" fill="#42ade2"/></svg>