<svg width="50" height="60.001" xmlns="http://www.w3.org/2000/svg"><path fill="#c8d2da" d="M28.738 50.95L50 35.539V60c-2.207-6.52-21.262-9.05-21.262-9.05z"/><path fill="#e4eef7" d="M33.227 49.945c8.867-5.086 10.488-16.005 10.488-16.005s1.375-5.842-5.822-16.222c-3.959-5.715-15.928-10.014-17.535-5.696-3.344 8.982-.035 11.98-1.422 14.174-1.705 2.696-2.877 3.62-3.85 4.164-.709.397-1.135.99-1.082 2.117.078 1.607 2.846 1.863 2.932 2.326.221 1.16-.641 1.693-1.951 2.625-1.311.929 1.076 1.865.615 4.834-.465 2.967-.713 4.09-.713 4.09 1.08.85 3.416.808 3.152 2.613-.607 4.224 4.566 7.072 15.188.98z"/><path fill="#91999f" d="M17.381 40.732c-.621-.424-1.215-.872-1.67-1.374-.424-.497-.756-1.088-.396-2.18-.418.122-.838.593-1.002 1.23-.15.649-.041 1.366.184 1.92a4.94 4.94 0 00.813 1.358c-.338.385-.65.9-.785 1.473-.164.6-.152 1.19-.086 1.714.092.53.221 1.017.449 1.479.365-.962.604-1.892.971-2.4a2.778 2.778 0 01.621-.612 9.927 9.927 0 01.855-.562l1.602-.977z"/><path fill="#adb5bc" d="M20.756 28.024c4.119 3.059 7.482-.244 7.482-.244-3.584.926-7.482.244-7.482.244z"/><path fill="#c8d2da" d="M21.451 37.365c-.486.525-.854 1.197-1.143 1.923a8.986 8.986 0 00-.584 2.346c-.074.83-.049 1.699.162 2.506.197.808.574 1.536 1.076 2.027-.199-.777-.342-1.496-.393-2.22a12.27 12.27 0 01.045-2.16c.146-1.446.491-2.867.837-4.422z"/><path fill="#91999f" d="M24.354 19.34c3.164 0 6.375 3.067 6.375 3.067-6.875-3.373-11.707 0-11.707 0 .617-.84 2.855-3.071 5.332-3.067zm11.898 1.53s6.32 21.518 0 39.13h4.654s6.801-19.501-.764-39.667z"/><path fill="#adb5bc" d="M40.09 20.775s6.32 21.612 0 39.226h4.652s6.801-19.595-.764-39.762z"/><path fill="#91999f" d="M43.82 20.87s6.32 21.518 0 39.13H50V35.539z"/><path fill="#c8d2da" d="M32.496 2.406s-3.52-1.077-5.176-.123c-11.221 6.467-5.846 7.542-1.887 5.885 2.838-1.188 7.063-5.762 7.063-5.762z"/><path fill="#adb5bc" d="M24.389 7.47s-3.645-1.303-5.174-.126c-7.379 5.682-1.207 16.732-1.207 16.732s-1.42-10.794 2.541-12.451c2.838-1.19 3.84-4.155 3.84-4.155z"/><path fill="#c8d2da" d="M50 2.528c-11.902-6.091-19.018.74-19.018.74L50 25.427z"/><path fill="#c8d2da" d="M31.125 15.63c-7.094-6.87-10.576-4.005-10.576-4.005C30.982-7.101 50 18.9 50 35.538c0 0-12.514-13.746-18.875-19.908z"/><path fill="#c8d2da" d="M34.602 25.742C26.373 16.672 22.776 8.43 22.776 8.43 31.525 20.333 46.906 27.095 50 56.2c0 0-7.75-22.028-15.398-30.458z"/><path fill="#adb5bc" d="M38.256 11.605c-7.465-7.706-13.289-5.102-13.289-5.102C33.328-4.705 47.52 1.663 50 21.112v14.426s-5.561-17.554-11.744-23.933z"/><path d="M4.812 28.347c-1.185 1.756 1.314 4.28 2.78 2.248 1.636-2.216-1.14-5.85-3.527-3.627-4.272 4.54 2.665 10.383 7.63 11.644-3.858.243-8.511-1.926-9.99-5.7-1.021-2.611-.502-6.828 2.497-7.953 3.323-1.297 6.06 2.77 4.455 5.61-2.034 3.6-6.233.28-3.845-2.222zm9.353 12.588c-3.872.175-13.61.27-12.455 5.866.484 2.345 3.569 2.33 3.385-.271-.108-2.052-2.849-1.608-2.389.523-2.022-3.987 5.571-3.465 3.274 1.319C4.447 51.567.292 49.642.027 46.44c-.621-7.443 9.642-6.66 14.138-5.505z" fill="#42ade2"/></svg>