<svg width="60" height="60.001" xmlns="http://www.w3.org/2000/svg"><path fill="#c8d2da" d="M38.738 50.95L60 35.539V60c-2.207-6.52-21.262-9.05-21.262-9.05z"/><path fill="#e4eef7" d="M43.227 49.945c8.867-5.086 10.488-16.005 10.488-16.005s1.375-5.842-5.822-16.222c-3.959-5.715-15.928-10.014-17.535-5.696-3.344 8.982-.035 11.98-1.422 14.174-1.705 2.696-2.877 3.62-3.85 4.164-.709.397-1.135.99-1.082 2.117.078 1.607 2.846 1.863 2.932 2.326.221 1.16-.641 1.693-1.951 2.625-1.311.929 1.076 1.865.615 4.834-.465 2.967-.713 4.09-.713 4.09 1.08.85 3.416.808 3.152 2.613-.607 4.224 4.566 7.072 15.188.98z"/><path fill="#91999f" d="M27.917 40.857c-.826-.424-1.616-.872-2.221-1.374-.565-.497-1.006-1.088-.527-2.18-.556.122-1.115.593-1.333 1.23-.2.649-.055 1.366.245 1.92a6.572 4.94 0 001.081 1.358c-.45.385-.865.9-1.044 1.473-.218.6-.202 1.19-.115 1.714.123.53.294 1.017.598 1.479.485-.962.803-1.892 1.291-2.4a3.695 2.778 0 01.826-.612 13.206 9.927 0 011.138-.562l2.131-.977zm6.437-21.517c3.164 0 6.375 3.067 6.375 3.067-6.875-3.373-11.707 0-11.707 0 .617-.84 2.855-3.071 5.332-3.067zm11.898 1.53s6.32 21.518 0 39.13h4.654s6.801-19.501-.764-39.667z"/><path fill="#adb5bc" d="M50.09 20.775s6.32 21.612 0 39.226h4.652s6.801-19.595-.764-39.762z"/><path fill="#91999f" d="M53.82 20.87s6.32 21.518 0 39.13H60V35.539z"/><path fill="#c8d2da" d="M42.496 2.406s-3.52-1.077-5.176-.123c-11.221 6.467-5.846 7.542-1.887 5.885 2.838-1.188 7.063-5.762 7.063-5.762z"/><path fill="#adb5bc" d="M34.389 7.47s-3.645-1.303-5.174-.126c-7.379 5.682-1.207 16.732-1.207 16.732s-1.42-10.794 2.541-12.451c2.838-1.19 3.84-4.155 3.84-4.155z"/><path fill="#c8d2da" d="M60 2.528c-11.902-6.091-19.018.74-19.018.74L60 25.427z"/><path fill="#c8d2da" d="M41.125 15.63c-7.094-6.87-10.576-4.005-10.576-4.005C40.982-7.101 60 18.9 60 35.538c0 0-12.514-13.746-18.875-19.908z"/><path fill="#c8d2da" d="M44.602 25.742C36.373 16.672 32.776 8.43 32.776 8.43 41.525 20.333 56.906 27.095 60 56.2c0 0-7.75-22.028-15.398-30.458z"/><path fill="#adb5bc" d="M48.256 11.605c-7.465-7.706-13.289-5.102-13.289-5.102C43.328-4.705 57.52 1.663 60 21.112v14.426s-5.561-17.554-11.744-23.933z"/><path d="M4.812 28.347c-1.185 1.756 1.314 4.28 2.78 2.248 1.636-2.216-1.14-5.85-3.527-3.627-4.272 4.54 2.665 10.383 7.63 11.644-3.858.243-8.511-1.926-9.99-5.7-1.021-2.611-.502-6.828 2.497-7.953 3.323-1.297 6.06 2.77 4.455 5.61-2.034 3.6-6.233.28-3.845-2.222zM24 41.314c-4.75.887-10.182-1.568-12.251-6.04-1.674-3.587-1.024-10.283 3.727-11.223 3.651-.748 6.114 3.1 5.554 6.322-1.143 6.667-8.983 2.097-5.496-1.74-1.709 3.053 2.729 5.824 4.16 2.836 1.313-2.742-1.186-7.303-4.626-5.53-3.848 1.985-2.837 8.004-.321 10.54 2.444 2.609 5.877 3.94 9.253 4.835z" fill="#42ade2"/><path d="M24 42.286c-4.363.44-9.662.74-13.339 3.432-2.83 2.07-3.841 6.989-1.295 9.704 2.521 2.703 6.09.034 5.815-3.165-.326-3.807-5.795-2.71-4.668.882-2.637-4.805 6.853-6.691 5.598.782-.787 4.687-7.439 5.567-9.287 1.18C2.16 44.022 16.313 40.216 24 42.287z" fill="#42ade2"/><path d="M14.165 40.935c-3.872.175-13.61.27-12.455 5.866.484 2.345 3.569 2.33 3.385-.271-.108-2.052-2.849-1.608-2.389.523-2.022-3.987 5.571-3.465 3.274 1.319C4.447 51.567.292 49.642.027 46.44c-.621-7.443 9.642-6.66 14.138-5.505z" fill="#42ade2"/><path style="font-variation-settings:normal;-inkscape-stroke:none" d="M30.582 26.717c.129-.127.254-.258.383-.384a5.945 5.945 0 01.937-.745 5.328 5.328 0 01.905-.465 5.13 5.13 0 011.183-.32c.1-.014.2-.026.301-.035.086-.007.173-.008.26-.01v.002h.055c.013 0 .028.004.041-.003h.199c.013.007.028.002.041.003h.06v-.001l.056.001c.1.001.2.007.3.018a5.08 5.08 0 011.277.303 5.336 5.336 0 01.852.407 5.597 5.597 0 01.888.647c.056.05.112.099.165.15l.41.411c.015.014.03.028.035.048v.004c-.006.016-.017.027-.029.039l-.13.132c-.095.097-.19.194-.29.288a6.57 6.57 0 01-.488.419 5.728 5.728 0 01-1.013.615 5.452 5.452 0 01-.733.281 5.144 5.144 0 01-1.223.212c-.082.003-.163.002-.245.003-.083.001-.166-.001-.25-.003-.065-.002-.13-.003-.195-.008a5.765 5.765 0 01-.577-.078 5.395 5.395 0 01-2.173-.962 5.92 5.92 0 01-.584-.492 20.94 20.94 0 01-.42-.423c-.02-.02-.02-.034 0-.054zm4.64 1.468a4.58 4.58 0 00.483-.116c.477-.141 1.31-.353 1.724-.628a5.28 5.28 0 00.671-.53l.157-.151c.01-.01.011-.017 0-.028a5.26 5.26 0 00-1.343-.983c-.399-.203-1.213-.35-1.652-.436l-.035-.006c-.004-.002-.009-.005-.011-.001a1.686 1.686 0 01.791 1.15 1.655 1.655 0 01-.346 1.342 1.653 1.653 0 01-.449.388c.003.005.007 0 .01 0zm-1.505-.884c.323 0 .56-.266.556-.566a.556.556 0 10-.556.566zm-2.476-.541c.382.382.791.657 1.287.953.19.114.325.199.536.295.16.079.403.172.44.179-.522-.34-.814-.814-.814-1.44 0-.628.292-1.102.813-1.443-.046.01-.442.182-.489.192-.39.16-.847.46-1.2.735-.2.157-.393.321-.573.501-.012.012-.01.017 0 .028z" fill="#adb5bc"/><path d="M34.847 24.757h.041a.035.035 0 000 .002c-.014-.001-.028.002-.041-.002z" style="font-variation-settings:normal;-inkscape-stroke:none" fill="#adb5bc"/><path d="M34.888 24.759v.001c-.013 0-.028.004-.041-.003.013.004.027.001.041.002zm-.281 0v-.002h.041c-.014.004-.027 0-.041.002z" style="font-variation-settings:normal;-inkscape-stroke:none" fill="#adb5bc"/><path d="M34.607 24.76v-.001c.014-.001.027.002.041-.002-.013.007-.028.002-.041.004zm.311-.001v-.002h.03v.002h-.002zm0 .001v-.001h.03v.001zm-.002-.001h-.026l-.002-.002h.03l-.002.002z" style="font-variation-settings:normal;-inkscape-stroke:none" fill="#adb5bc"/><path d="M34.89 24.759h.026l.002.001h-.03l.002-.001zm0 0h-.002v-.002c.002 0 .002.001.002.002z" style="font-variation-settings:normal;-inkscape-stroke:none" fill="#adb5bc"/><path d="M34.889 24.759h.001l-.002.001v-.001zm.029 0h-.002l.002-.002v.002zm-.002 0h.002v.001l-.002-.001zm-.311 0h-.028v-.002h.03c-.002 0-.002.001-.002.002zm-.027 0h.027l.002.002h-.03v-.002z" style="font-variation-settings:normal;-inkscape-stroke:none" fill="#adb5bc"/><path d="M34.607 24.759h-.002l.002-.002v.002zm-.002 0h.002v.002l-.002-.002zm-.03 0h-.025v-.002h.027c-.002 0-.002.001-.002.002zm0 0l.002.001h-.027v-.001h.003zm0 0l.002-.002v.002zm0 0h.002v.001l-.002-.001zm1.037.553c-.003-.001-.01-.003-.007-.006.002-.004.008 0 .011.001-.004 0-.005.001-.004.005z" style="font-variation-settings:normal;-inkscape-stroke:none" fill="#adb5bc"/><path d="M35.612 25.312c0-.004 0-.006.004-.005zm-.004 2.869c0 .003 0 .005.004.004-.003.002-.007.006-.01 0-.001-.001.003-.003.006-.004z" style="font-variation-settings:normal;-inkscape-stroke:none" fill="#adb5bc"/><path d="M35.608 28.18l.004.005c-.004.001-.005 0-.004-.004z" style="font-variation-settings:normal;-inkscape-stroke:none" fill="#adb5bc"/><path fill="#c8d2da" d="M35.885 34.775a10.913 10.913 0 00-3.35 2.93 8.939 8.939 0 00-1.713 3.577c-.217 1.265-.143 2.59.475 3.82.578 1.231 1.683 2.34 3.154 3.09-.583-1.185-1.8-3.078-1.949-4.18a9.793 9.793 0 01.132-3.293c.428-2.205 2.236-3.574 3.25-5.944z"/></svg>