<svg width="54.098" height="60.001" xmlns="http://www.w3.org/2000/svg"><path fill="#c8d2da" d="M32.836 50.95l21.262-15.412V60c-2.207-6.52-21.262-9.05-21.262-9.05z"/><path fill="#e4eef7" d="M37.325 49.945c8.867-5.086 10.488-16.005 10.488-16.005s1.375-5.842-5.822-16.222c-3.959-5.715-15.928-10.014-17.535-5.696-3.344 8.982-.035 11.98-1.422 14.174-1.705 2.696-2.877 3.62-3.85 4.164-.709.397-1.135.99-1.082 2.117.078 1.607 2.846 1.863 2.932 2.326.221 1.16-.64 1.693-1.95 2.625-1.312.929 1.075 1.865.614 4.834-.465 2.967-.713 4.09-.713 4.09 1.08.85 3.416.808 3.152 2.613-.607 4.224 4.566 7.072 15.188.98z"/><path fill="#91999f" d="M21.48 40.732c-.622-.424-1.216-.872-1.67-1.374-.425-.497-.757-1.088-.397-2.18-.418.122-.838.593-1.002 1.23-.15.649-.04 1.366.184 1.92a4.94 4.94 0 00.813 1.358c-.338.385-.65.9-.785 1.473-.164.6-.152 1.19-.086 1.714.092.53.221 1.017.45 1.479.364-.962.603-1.892.97-2.4a2.778 2.778 0 01.621-.612 9.927 9.927 0 01.855-.562l1.602-.977z"/><path fill="#adb5bc" d="M24.854 28.024c4.12 3.059 7.482-.244 7.482-.244-3.584.926-7.482.244-7.482.244z"/><path fill="#c8d2da" d="M25.55 37.365c-.487.525-.855 1.197-1.144 1.923a8.986 8.986 0 00-.584 2.346c-.074.83-.049 1.699.162 2.506.197.808.574 1.536 1.076 2.027-.199-.777-.342-1.496-.393-2.22a12.27 12.27 0 01.045-2.16c.146-1.446.491-2.867.837-4.422z"/><path fill="#91999f" d="M28.452 19.34c3.164 0 6.375 3.067 6.375 3.067-6.875-3.373-11.707 0-11.707 0 .617-.84 2.855-3.071 5.332-3.067zm11.898 1.53s6.32 21.518 0 39.13h4.654s6.801-19.501-.764-39.667z"/><path fill="#adb5bc" d="M44.188 20.775s6.32 21.612 0 39.226h4.652s6.801-19.595-.764-39.762z"/><path fill="#91999f" d="M47.918 20.87s6.32 21.518 0 39.13h6.18V35.539z"/><path fill="#c8d2da" d="M36.594 2.406s-3.52-1.077-5.176-.123c-11.22 6.467-5.846 7.542-1.887 5.885 2.838-1.188 7.063-5.762 7.063-5.762z"/><path fill="#adb5bc" d="M28.487 7.47s-3.645-1.303-5.174-.126c-7.379 5.682-1.207 16.732-1.207 16.732s-1.42-10.794 2.541-12.451c2.838-1.19 3.84-4.155 3.84-4.155z"/><path fill="#c8d2da" d="M54.098 2.528c-11.902-6.091-19.018.74-19.018.74l19.018 22.158z"/><path fill="#c8d2da" d="M35.223 15.63c-7.094-6.87-10.576-4.005-10.576-4.005C35.08-7.101 54.098 18.9 54.098 35.538c0 0-12.514-13.746-18.875-19.908z"/><path fill="#c8d2da" d="M38.7 25.742C30.471 16.672 26.874 8.43 26.874 8.43c8.75 11.902 24.13 18.664 27.224 47.769 0 0-7.75-22.028-15.398-30.458z"/><path fill="#adb5bc" d="M42.354 11.605C34.89 3.899 29.065 6.503 29.065 6.503c8.361-11.208 22.553-4.84 25.033 14.609v14.426s-5.56-17.554-11.744-23.933z"/><path d="M18.098 41.314c-4.75.887-10.182-1.568-12.25-6.04C4.172 31.687 4.822 24.99 9.573 24.05c3.651-.748 6.114 3.1 5.554 6.322-1.143 6.667-8.983 2.097-5.496-1.74-1.709 3.053 2.73 5.824 4.16 2.836 1.313-2.742-1.186-7.303-4.626-5.53-3.848 1.985-2.837 8.004-.32 10.54 2.443 2.609 5.876 3.94 9.252 4.835z" fill="#42ade2"/><path d="M18.098 42.286c-4.363.44-9.662.74-13.339 3.432-2.83 2.07-3.84 6.989-1.295 9.704 2.521 2.703 6.09.034 5.815-3.165-.326-3.807-5.795-2.71-4.668.882-2.637-4.805 6.853-6.691 5.598.782-.787 4.687-7.439 5.567-9.287 1.18-4.664-11.08 9.49-14.886 17.176-12.815z" fill="#42ade2"/></svg>